<svg xmlns="http://www.w3.org/2000/svg" xmlns:xlink="http://www.w3.org/1999/xlink" viewBox="0 0 997.08 500"><defs><style>.cls-1{fill:url(#Degradado_sin_nombre_4);}.cls-2{fill:#72b3e3;opacity:0.61;}.cls-3{fill:#7ab8e5;}.cls-4{fill:#82bce7;}.cls-5{fill:#8ec2e9;}.cls-6{fill:#9dcbec;}.cls-7{fill:#a6cfee;}.cls-8{fill:#b5d1db;}.cls-9{fill:#fff;}.cls-10{fill:#d6e2ea;}.cls-11{fill:none;stroke:#fff;stroke-miterlimit:10;stroke-width:2px;stroke-dasharray:5;}</style><linearGradient id="Degradado_sin_nombre_4" x1="265.6" y1="653.5" x2="731.35" y2="-153.2" gradientUnits="userSpaceOnUse"><stop offset="0" stop-color="#5190c5"/><stop offset="1" stop-color="#72b3e3"/></linearGradient></defs><title>Mesa de trabajo 1</title><g id="BACKGROUND"><rect class="cls-1" y="0.15" width="996.95" height="500"/><path class="cls-2" d="M997.08,232.69V131.88c-37.07,4.92-67,18.63-80.38,36.42C905.9,158.57,885.2,152,861.42,152c-18.26,0-34.7,3.88-46.24,10.09-17.23-22.06-60-37.69-110.11-37.69-63.69,0-115.59,25.26-118.12,56.89a104.56,104.56,0,0,0-11.78-.67c-18.34,0-34.49,4.68-44,11.79-10.25-17.09-41.85-29.54-79.26-29.54-27,0-50.93,6.47-66,16.49-9.62-20.53-46.35-35.82-90.22-35.82-46.51,0-85,17.19-91.67,39.59-9.63-6.54-25.11-10.79-42.57-10.79-14.66,0-27.93,3-37.51,7.83-6-15.21-32.74-26.68-64.83-26.68A121.12,121.12,0,0,0,28,157.36a13.87,13.87,0,0,0,.57-3.89C28.59,143.21,17,134.32,0,129.91V232.69Z"/><path class="cls-3" d="M997.08,302.38V222.17a158.43,158.43,0,0,0-34.91-3.77c-21.56,0-41.23,4-56.18,10.7C893,203.17,846.2,184,790.47,184c-26.56,0-51.09,4.36-70.91,11.74a21.06,21.06,0,0,0,.22-2.86c0-23.46-37.92-42.47-84.7-42.47s-84.69,19-84.69,42.47a24.08,24.08,0,0,0,4.25,13.29c-14.47-5.79-32.81-9.27-52.77-9.27-31.45,0-58.87,8.61-73.48,21.37-10.19-4.71-23.8-7.59-38.76-7.59-13.63,0-26.14,2.39-36,6.38C338.75,205,312.13,197,281.76,197c-40.47,0-74.28,14.26-82.59,33.3-21.85-13.38-55-21.93-92.23-21.93C60,208.32,19.41,221.94,0,241.73v60.65Z"/><path class="cls-4" d="M997.08,354.37V239.82c-41.86,10.13-72,30.5-77.54,54.64C903,284,877.4,277.28,848.69,277.28c-29,0-54.86,6.87-71.41,17.53-15.72-16.62-49.47-28.11-88.58-28.11h-.21a22,22,0,0,0,.21-2.93c0-25.06-40.5-45.37-90.47-45.37-49.33,0-89.4,19.79-90.43,44.41-25.38-14.22-62.23-23.17-103.26-23.17-53.8,0-100.4,15.38-123.37,37.85-12.1-5.63-28.29-9.07-46.1-9.07-15.7,0-30.14,2.68-41.63,7.17C178.76,260.46,147.83,250,112,250a161.61,161.61,0,0,0-48.17,7C58.63,239.44,33.31,225.17,0,220.25V354.37Z"/><path class="cls-5" d="M997.08,427.34V314.78c-4-.37-8-.57-12.18-.57-32,0-58.62,11.44-64.58,26.6-12-6.35-29-10.31-47.77-10.31a117.14,117.14,0,0,0-36,5.36c-10.27-22.24-50-38.82-97.45-38.82-33.28,0-62.75,8.16-80.94,20.69-11-18.58-45.23-32.13-85.83-32.13-48.42,0-87.84,19.28-89.45,43.37-10.87-4-24.23-6.31-38.7-6.31-25.51,0-47.61,7.28-58.54,17.92-18.36-10.95-45.87-17.92-76.63-17.92A190.4,190.4,0,0,0,273.14,326a17.64,17.64,0,0,0,1.68-7.39c0-18.23-29.47-33-65.83-33-27.73,0-51.44,8.6-61.14,20.77-18.18-12.58-47.7-20.77-81-20.77-25.68,0-49.09,4.85-66.8,12.82V427.34Z"/><path class="cls-6" d="M997.08,480.42V368.18c-42.33,2.52-79.05,14.19-102.08,31a166,166,0,0,0-40.73-4.89c-34.06,0-63.69,9.5-79,23.5-11.1-5.64-26.52-9.13-43.56-9.13a117.27,117.27,0,0,0-20.38,1.75A24.3,24.3,0,0,0,714,399.47c0-24.91-40.27-45.1-89.93-45.1-40.41,0-74.6,13.36-85.93,31.76-10.69-4.55-24.52-7.3-39.64-7.3-24.25,0-45.2,7.06-55.13,17.31-16.46-10.53-42.05-17.31-70.81-17.31-46.77,0-85.19,17.91-89.51,40.81-26.56-15.61-66-25.52-110.17-25.52-31.7,0-61,5.12-84.84,13.79C79.65,387.38,43.42,372,0,372V480.42Z"/><path class="cls-7" d="M997.08,500.07V378.65c-24.59,6.4-41.41,19.27-41.41,34.12a20,20,0,0,0,.83,5.64,175,175,0,0,0-45-5.64c-46.47,0-85.19,16.61-93.88,38.64-13.87-7-33.08-11.34-54.32-11.34-25.28,0-47.7,6.15-61.65,15.63-9.63-32.45-65.39-57.34-132.76-57.34-63.53,0-116.72,22.15-130.64,51.88-21.89-14.51-56.58-23.88-95.64-23.88-54.18,0-99.94,18-114.79,42.77-13.74-10.29-37.13-17.07-63.69-17.07a141.24,141.24,0,0,0-34.62,4.15C115.09,431.13,69,412.77,14.34,412.77c-4.86,0-9.63.16-14.34.45v86.85Z"/></g><g id="OBJECTS"><path class="cls-8" d="M540.15,240.67l12.13,37.1a3.94,3.94,0,0,0,6.25,1.81l36.22-29.9s-38.49-15-38.49-14.2S540.15,240.67,540.15,240.67Z"/><path class="cls-9" d="M635.73,169.37c-23.66,9.35-100,40.64-128.92,52.5a4.42,4.42,0,0,0,.35,8.29l33,10.51,12.09,37a4,4,0,0,0,3.09,2.71c1.11.21,2.75-30,2.75-30s34.69,25.72,51.14,37.87a6.85,6.85,0,0,0,10.81-4.2c4.9-25.26,17.15-88.43,21.34-110A4.18,4.18,0,0,0,635.73,169.37Z"/><path class="cls-10" d="M555.33,280.36c1.11.21,2.75-30,2.75-30l57-53.53a.44.44,0,0,0-.53-.7l-74.39,44.49,12.09,37A4,4,0,0,0,555.33,280.36Z"/><path class="cls-11" d="M357.87,353c39.15-.12,91.18-22.19,101.62-64.58,4.22-17.1.47-35.43-13.09-47.91-17.13-15.77-35.94-1.36-31.31,20.66,7.61,36.17,51.78,63,85.35,63.33,19.41.22,37.61-9.09,44.59-28.1"/></g></svg>