<svg xmlns="http://www.w3.org/2000/svg" xmlns:xlink="http://www.w3.org/1999/xlink" viewBox="0 0 2245.88 1422.24"><defs><style>.cls-1{fill:none;}.cls-2{opacity:0.5;}.cls-3,.cls-71{fill:#fff;}.cls-4,.cls-71{opacity:0.1;}.cls-5{fill:#b5b5b6;}.cls-6{isolation:isolate;}.cls-7{fill:#4f4f4f;}.cls-8{fill:#707171;}.cls-9{clip-path:url(#clip-path);}.cls-10{fill:#4b4a4b;}.cls-11{fill:#494848;}.cls-12{fill:#464646;}.cls-13{clip-path:url(#clip-path-2);}.cls-14{fill:#3a3a3a;}.cls-15{fill:#3c3c3c;}.cls-16{fill:#3f4040;}.cls-17{fill:#414242;}.cls-18{fill:#444;}.cls-19{fill:#626363;}.cls-20{clip-path:url(#clip-path-3);}.cls-21{clip-path:url(#clip-path-4);}.cls-22{clip-path:url(#clip-path-5);}.cls-23{clip-path:url(#clip-path-6);}.cls-24{clip-path:url(#clip-path-7);}.cls-25{clip-path:url(#clip-path-8);}.cls-26{fill:#e3e3e3;}.cls-27{fill:#cdcdcd;}.cls-28{fill:#4d4e4e;}.cls-29{fill:#8e8e8e;}.cls-30{fill:#676767;}.cls-31{fill:gray;}.cls-32{fill:#faaf3a;}.cls-33{fill:#e09d35;}.cls-34{fill:#eaeae9;}.cls-35{fill:#ececec;}.cls-36{fill:#f3f4f5;}.cls-37{fill:#d6d6d5;}.cls-38{fill:#733822;}.cls-39{opacity:0.3;}.cls-40{fill:#b9d659;}.cls-41{fill:#99ca4a;}.cls-42{fill:#87ba40;}.cls-43{fill:#7ead41;}.cls-44{fill:#e4e4e4;}.cls-45{fill:#d7d7d7;}.cls-46{fill:#a6a4a4;}.cls-47{fill:#333;}.cls-48{fill:#4b6682;}.cls-49{fill:#212120;}.cls-50{fill:#515252;}.cls-51{fill:#364a5f;}.cls-52{fill:#99b259;}.cls-53{fill:#f8c523;}.cls-54{fill:#ec6c71;}.cls-55{fill:#4d7dbf;}.cls-56{fill:#9eb2db;}.cls-57{fill:#ed4582;}.cls-58{fill:#afd13c;}.cls-59{fill:#71cde5;}.cls-60{fill:#a385bd;}.cls-61{fill:#c1c2c5;}.cls-62{fill:#aaaaac;}.cls-63{fill:#d0d3da;}.cls-64{fill:#ecedf1;}.cls-65{fill:#adadad;}.cls-66{fill:#efefef;}.cls-67{fill:#aeaeaf;}.cls-68{fill:#f2f2f1;}.cls-69{fill:#e0e0df;}.cls-70{fill:#4e2c10;}.cls-72{fill:#f04d44;}.cls-73{fill:#efeeee;}.cls-74{fill:#da463d;}.cls-75{fill:#b63a33;}.cls-76{fill:#5b5b5c;}.cls-77{fill:#64cbea;}.cls-78{fill:#60c0dd;}.cls-79{fill:#59b7d5;}.cls-80{fill:#fcba5c;}.cls-81{fill:#fdc77a;}.cls-82{fill:#faae42;}.cls-83{fill:#5891cc;}.cls-84{fill:#74a0cd;}.cls-85{fill:#4686c6;}</style><clipPath id="clip-path"><path class="cls-1" d="M1198.85,555.3l3.45,1.88a6.82,6.82,0,0,0-4.28-.73l-3.44-1.88A6.87,6.87,0,0,1,1198.85,555.3Z"/></clipPath><clipPath id="clip-path-2"><path class="cls-1" d="M1193.72,573l-3.45-1.87a7.52,7.52,0,0,1-3.71-6.78c0-4.76,3.6-9.13,8-9.75l3.44,1.88c-4.42.62-8,5-8,9.75A7.45,7.45,0,0,0,1193.72,573Z"/></clipPath><clipPath id="clip-path-3"><path class="cls-1" d="M1391.17,665.8l3.45,1.87a6.86,6.86,0,0,0-4.27-.73l-3.45-1.87A6.79,6.79,0,0,1,1391.17,665.8Z"/></clipPath><clipPath id="clip-path-4"><path class="cls-1" d="M1386,683.47l-3.44-1.88a7.45,7.45,0,0,1-3.71-6.77c0-4.77,3.59-9.13,8-9.75l3.45,1.87c-4.42.62-8,5-8,9.75A7.48,7.48,0,0,0,1386,683.47Z"/></clipPath><clipPath id="clip-path-5"><path class="cls-1" d="M754.06,812.32l3.45,1.88a6.9,6.9,0,0,0-4.28-.74l-3.44-1.87A6.87,6.87,0,0,1,754.06,812.32Z"/></clipPath><clipPath id="clip-path-6"><path class="cls-1" d="M748.93,830l-3.45-1.88a7.49,7.49,0,0,1-3.71-6.77c0-4.77,3.6-9.13,8-9.75l3.44,1.87c-4.42.62-8,5-8,9.76A7.48,7.48,0,0,0,748.93,830Z"/></clipPath><clipPath id="clip-path-7"><path class="cls-1" d="M946.38,922.82l3.45,1.87a6.86,6.86,0,0,0-4.27-.73l-3.45-1.88A6.86,6.86,0,0,1,946.38,922.82Z"/></clipPath><clipPath id="clip-path-8"><path class="cls-1" d="M941.25,940.49l-3.44-1.88a7.46,7.46,0,0,1-3.71-6.77c0-4.77,3.59-9.14,8-9.76l3.45,1.88c-4.42.62-8,5-8,9.75A7.49,7.49,0,0,0,941.25,940.49Z"/></clipPath></defs><title>Artboard 3</title><g id="Layer_2" data-name="Layer 2"><g class="cls-2"><path class="cls-3" d="M230.87,1327.33c-17.75-10.24-27.58-23.86-27.66-38.37s9.59-28.13,27.23-38.38c36.4-21.15,95.87-21.15,132.5,0s36.83,55.6.43,76.75-95.86,21.15-132.5,0ZM38.41,1068.43c-17.3-10-17.39-26.21-.24-36.18s45.21-10,62.51,0,17.36,26.2.17,36.18-45.18,10-62.44,0Zm327.8-97.06c-17.26-10-17.32-26.22-.17-36.18s45.21-10,62.47,0,17.39,26.22.21,36.2-45.21,10-62.51,0Zm483.34,279.06c-17.29-10-17.35-26.24-.2-36.2s45.21-10,62.51,0,17.35,26.2.17,36.18-45.21,10-62.48,0ZM87.74,540c-17.3-10-17.39-26.22-.2-36.2s45.2-10,62.5,0,17.36,26.2.17,36.18S105,550,87.74,540Zm1486.83,790.76c-17.27-10-17.36-26.2-.21-36.17s45.21-10,62.48,0,17.39,26.22.2,36.21-45.17,10-62.47,0Zm-231-154c-17.3-10-17.39-26.22-.24-36.19s45.21-10,62.51,0,17.35,26.2.17,36.19-45.18,10-62.44,0ZM212.28,359.56c-36.63-21.15-36.86-55.58-.43-76.75s95.87-21.15,132.5,0,36.83,55.6.43,76.75-95.83,21.17-132.5,0Zm1673.37,898.5c-36.66-21.17-36.86-55.58-.43-76.75s95.84-21.17,132.5,0,36.83,55.6.44,76.75-95.87,21.15-132.51,0ZM658.43,208.36c-17.3-10-17.39-26.22-.23-36.19s45.2-10,62.5,0,17.36,26.2.17,36.19-45.17,10-62.44,0Zm1486.8,790.78c-17.27-10-17.36-26.2-.2-36.17s45.2-10,62.47,0,17.39,26.22.2,36.21-45.17,10-62.47,0ZM1755.29,639.31c-17.3-10-17.36-26.24-.21-36.21s45.21-10,62.51,0,17.36,26.2.17,36.19-45.21,10-62.47,0ZM1469.91,363c-17.27-10-17.36-26.2-.21-36.17s45.21-10,62.48,0,17.38,26.22.2,36.21-45.18,10-62.47,0Zm550.44,143c-17.3-10-17.39-26.22-.21-36.21s45.21-10,62.51,0,17.36,26.24.2,36.21-45.24,10-62.5,0ZM1823.74,325.56c-36.63-21.15-36.82-55.6-.43-76.75s95.87-21.15,132.5,0,36.86,55.58.44,76.75-95.84,21.17-132.51,0ZM1991.57,228c-56.49-32.62-148.12-32.62-204.24,0-51.88,30.15-55.49,77.76-11.13,110.56L1377.44,570.32,1252,497.91l207.72-120.72c27.32,11.75,66,10.49,90.61-3.79,27-15.71,26.92-41.28-.29-57s-71.34-15.69-98.38,0c-24.55,14.27-26.59,36.69-6.29,52.44L1237.64,489.61,1207,471.92c-54.16-31.27-142.49-31.27-196.3,0L905.44,533.09,645.37,382.94l44.41-152.42c17.82,0,35.59-3.91,49.1-11.76,27-15.71,26.89-41.26-.32-57s-71.31-15.71-98.34,0-26.89,41.25.32,57a89.09,89.09,0,0,0,29.18,10.06L623.6,386.92,891.15,541.39,788.33,601.14,392.51,372.62c44-32.81,39.84-80.42-12.4-110.58-56.49-32.62-148.12-32.62-204.25,0s-55.82,85.69.67,118.3c52.25,30.17,134.46,32.41,191,6.83L763.3,615.69,651.69,680.55,358.23,511.12l-171.49,2.32c-2.72-7.35-9-14.33-18.84-20-27.21-15.71-71.31-15.71-98.34,0s-26.89,41.25.32,57,71.31,15.71,98.34,0c12.1-7,18.7-16,19.91-25.23l162-2.19L637.41,688.85l-98.9,57.47c-53.8,31.27-53.51,82.44.64,113.71l2.14,1.23L438.57,921c-27.28-11.69-65.95-10.46-90.54,3.83-27,15.71-26.89,41.25.32,57s71.31,15.71,98.34,0c24.62-14.3,26.63-36.71,6.3-52.47l102.72-59.7,101.67,58.7L402.25,1076.55,139,1050.33c-.06-10.32-6.93-20.63-20.5-28.46-27.21-15.71-71.34-15.73-98.38,0s-26.85,41.27.36,57,71.31,15.71,98.34,0c8.37-4.86,14.15-10.69,17.28-16.87l273.13,27.21L671.8,936.61l103.49,59.75L385.29,1223c-56.74-25.6-139-23.34-190.84,6.81-27.19,15.8-42.09,36.8-42,59.17s15.26,43.33,42.63,59.13c56.49,32.62,148.12,32.62,204.24,0,51.87-30.15,55.51-77.78,11.13-110.56l390-226.64,213.94,123.52c3.43,2,7,3.83,10.75,5.57l-103.27,60c-27.28-11.69-65.95-10.45-90.54,3.84-27,15.71-26.88,41.25.32,57s71.32,15.71,98.35,0c24.62-14.31,26.62-36.75,6.26-52.49l105.84-61.51c53.28,18.12,123.22,14,168.59-12.38l53.61-31.16,54.45,31.44c-20.15,15.76-17.89,38.2,6.88,52.51,27.18,15.69,71.32,15.71,98.35,0s26.85-41.28-.32-57c-24.75-14.28-63.44-15.55-90.55-3.85L1278.66,1095,1368,1043l235.09,135.73-3.25,93.83c-15.88.75-31.38,4.58-43.48,11.61-27,15.71-26.86,41.28.32,57s71.34,15.72,98.37,0,26.86-41.28-.35-57c-9.85-5.68-21.91-9.29-34.61-10.84l3.48-99.33-241.28-139.3,111.6-64.86,343.64,198.4c-44,32.79-39.84,80.42,12.37,110.56,56.49,32.62,148.12,32.62,204.24,0s55.83-85.69-.66-118.3c-52.22-30.15-134.46-32.41-190.92-6.81l-343.63-198.4,102.81-59.75,215.34,124.33,272.82-27.21c3.2,6.17,9,12,17.44,16.85,27.21,15.7,71.34,15.72,98.37,0s26.86-41.27-.35-57-71.31-15.71-98.34,0c-13.52,7.86-20.21,18.16-20.15,28.48l-262.95,26.24L1636,887.27,1682.92,860c53.8-31.27,53.52-82.43-.64-113.7l-48.59-28.05,111.48-64.79c27.28,11.73,66,10.49,90.6-3.79,27-15.71,26.89-41.26-.32-57s-71.31-15.71-98.34,0c-24.59,14.29-26.63,36.68-6.33,52.46L1619.31,710l-90-51.93L1820.3,489l162,2.21c1.35,9.2,8,18.17,20.23,25.21,27.21,15.7,71.31,15.7,98.34,0s26.89-41.25-.32-57-71.31-15.71-98.34,0c-9.79,5.69-16,12.66-18.62,20L1812,477.09,1515,649.73l-112.34-64.86L1801.4,353.14c56.77,25.58,139,23.34,190.83-6.81,56.13-32.61,55.83-85.69-.66-118.3Z"/><path class="cls-3" d="M612.8,1400.06c-17.29-10-17.38-26.22-.23-36.19s45.21-10,62.5,0,17.36,26.2.17,36.19-45.17,10-62.44,0Zm318.51-318.3-14.38-8.3L624.51,1243.31l4.53,99.32c-12.64,1.57-24.67,5.18-34.45,10.87-27,15.7-26.89,41.25.32,57s71.31,15.71,98.34,0,26.89-41.26-.32-57c-12.18-7-27.69-10.88-43.58-11.63l-4.34-93.8,286.3-166.3Z"/></g><ellipse class="cls-4" cx="1280.7" cy="909.87" rx="143.91" ry="70.56"/><polygon class="cls-4" points="742.05 864.91 942.11 980.43 1396.15 720.74 1191.79 605.46 742.05 864.91"/><g id="desk"><path class="cls-5" d="M752.37,597.71c2.67,1.54,2.68,4,0,5.58a10.61,10.61,0,0,1-9.63,0c-2.67-1.54-2.69-4,0-5.58A10.63,10.63,0,0,1,752.37,597.71Z"/><g class="cls-6"><path class="cls-7" d="M755.64,862.51v4c0,1.3-.86,2.6-2.57,3.59a13.75,13.75,0,0,1-12.49,0c-1.75-1-2.62-2.33-2.61-3.64v-4c0,1.32.86,2.64,2.61,3.64a13.75,13.75,0,0,0,12.49,0C754.78,865.11,755.64,863.81,755.64,862.51Z"/><path class="cls-8" d="M753,858.86c3.47,2,3.49,5.24,0,7.24a13.75,13.75,0,0,1-12.49,0c-3.47-2-3.48-5.24,0-7.24A13.75,13.75,0,0,1,753,858.86Z"/></g><g class="cls-6"><path class="cls-7" d="M1200.43,605.49v4c0,1.3-.86,2.6-2.57,3.59a13.75,13.75,0,0,1-12.49,0c-1.75-1-2.62-2.32-2.61-3.64v-4c0,1.32.86,2.64,2.61,3.64a13.75,13.75,0,0,0,12.49,0C1199.57,608.09,1200.43,606.79,1200.43,605.49Z"/><path class="cls-8" d="M1197.82,601.84c3.47,2,3.49,5.24,0,7.24a13.75,13.75,0,0,1-12.49,0c-3.47-2-3.48-5.24,0-7.23A13.78,13.78,0,0,1,1197.82,601.84Z"/></g><g class="cls-6"><g class="cls-6"><g class="cls-9"><g class="cls-6"><path class="cls-10" d="M1198,556.45l-3.44-1.88a7,7,0,0,1,2.76.14l3.45,1.88a6.9,6.9,0,0,0-2.77-.14Z"/><path class="cls-11" d="M1200.79,556.59l-3.45-1.88a6.15,6.15,0,0,1,1.26.47l3.45,1.87a6.77,6.77,0,0,0-1.26-.46Z"/><path class="cls-12" d="M1202.05,557.05l-3.45-1.87.25.12,3.45,1.88-.25-.13Z"/></g></g></g><g class="cls-6"><g class="cls-13"><g class="cls-6"><path class="cls-14" d="M1193.72,573l-3.45-1.87a7.52,7.52,0,0,1-3.71-6.78,10,10,0,0,1,.62-3.4l3.45,1.88a9.71,9.71,0,0,0-.62,3.4,7.45,7.45,0,0,0,3.71,6.77Z"/><path class="cls-15" d="M1190.63,562.8l-3.45-1.88a10.73,10.73,0,0,1,.6-1.34l3.45,1.87a11.57,11.57,0,0,0-.6,1.35Z"/><path class="cls-16" d="M1191.23,561.45l-3.45-1.87a10.44,10.44,0,0,1,.66-1.06l3.44,1.88c-.23.34-.45.69-.65,1.05Z"/><path class="cls-17" d="M1191.88,560.4l-3.44-1.88a10.26,10.26,0,0,1,.72-.91l3.44,1.88c-.25.29-.49.59-.72.91Z"/><path class="cls-18" d="M1192.6,559.49l-3.44-1.88a7.84,7.84,0,0,1,.81-.82l3.45,1.87a10.7,10.7,0,0,0-.82.83Z"/><path class="cls-12" d="M1193.42,558.66l-3.45-1.87a10.24,10.24,0,0,1,1-.77l3.44,1.88a10,10,0,0,0-1,.76Z"/><path class="cls-11" d="M1194.38,557.9l-3.44-1.88a9.77,9.77,0,0,1,1.3-.75l3.44,1.88a8.92,8.92,0,0,0-1.3.75Z"/><path class="cls-10" d="M1195.68,557.15l-3.44-1.88a8.22,8.22,0,0,1,2.34-.7l3.44,1.88a8,8,0,0,0-2.34.7Z"/></g></g></g><path class="cls-19" d="M1198,556.45c4.42-.63,8,2.73,8,7.5s-3.59,9.13-8,9.76-8-2.74-8-7.51S1193.6,557.07,1198,556.45Z"/></g><path class="cls-7" d="M1199.17,343.5l-.72,261.63a3.38,3.38,0,0,1-2,2.77,10.61,10.61,0,0,1-9.63,0,3.39,3.39,0,0,1-2-2.81l.71-261.63a3.4,3.4,0,0,0,2,2.81,10.61,10.61,0,0,0,9.63,0A3.37,3.37,0,0,0,1199.17,343.5Z"/><g class="cls-6"><path class="cls-5" d="M1390.09,681c-2.67,1.55-4.84.32-4.86-2.75a10.63,10.63,0,0,1,4.8-8.36c2.67-1.54,4.84-.31,4.85,2.76A10.6,10.6,0,0,1,1390.09,681Z"/><path class="cls-7" d="M1386.65,681.31l-192.81-111a3.38,3.38,0,0,1-1.42-3.09,10.63,10.63,0,0,1,4.8-8.36,3.4,3.4,0,0,1,3.44-.34l192.81,111a3.43,3.43,0,0,0-3.44.34,10.63,10.63,0,0,0-4.8,8.36A3.41,3.41,0,0,0,1386.65,681.31Z"/></g><g class="cls-6"><path class="cls-7" d="M1400.9,720.76v4c0,1.3-.86,2.6-2.57,3.6a13.8,13.8,0,0,1-12.5,0c-1.74-1-2.61-2.32-2.61-3.64v-4c0,1.32.87,2.64,2.61,3.64a13.8,13.8,0,0,0,12.5,0C1400,723.36,1400.9,722.06,1400.9,720.76Z"/><path class="cls-8" d="M1398.29,717.11c3.46,2,3.48,5.25,0,7.25a13.8,13.8,0,0,1-12.5,0c-3.46-2-3.48-5.23,0-7.23A13.8,13.8,0,0,1,1398.29,717.11Z"/></g><g class="cls-6"><g class="cls-6"><g class="cls-20"><g class="cls-6"><path class="cls-10" d="M1390.35,666.94l-3.45-1.87a7.09,7.09,0,0,1,2.77.14l3.44,1.87a7,7,0,0,0-2.76-.14Z"/><path class="cls-11" d="M1393.11,667.08l-3.44-1.87a6.77,6.77,0,0,1,1.26.46l3.45,1.88a6.63,6.63,0,0,0-1.27-.47Z"/><path class="cls-12" d="M1394.38,667.55l-3.45-1.88.24.13,3.45,1.87-.24-.12Z"/></g></g></g><g class="cls-6"><g class="cls-21"><g class="cls-6"><path class="cls-14" d="M1386,683.47l-3.44-1.88a7.45,7.45,0,0,1-3.71-6.77,9.8,9.8,0,0,1,.62-3.4l3.44,1.87a10,10,0,0,0-.61,3.4,7.48,7.48,0,0,0,3.7,6.78Z"/><path class="cls-15" d="M1383,673.29l-3.44-1.87a11.57,11.57,0,0,1,.6-1.35l3.45,1.88a10.79,10.79,0,0,0-.61,1.34Z"/><path class="cls-16" d="M1383.56,672l-3.45-1.88c.2-.36.42-.71.65-1.05l3.45,1.87a10.36,10.36,0,0,0-.65,1.06Z"/><path class="cls-17" d="M1384.21,670.89l-3.45-1.87c.23-.32.47-.62.72-.91l3.45,1.87a10.26,10.26,0,0,0-.72.91Z"/><path class="cls-18" d="M1384.93,670l-3.45-1.87a10.7,10.7,0,0,1,.82-.83l3.44,1.88c-.28.26-.55.53-.81.82Z"/><path class="cls-12" d="M1385.74,669.16l-3.44-1.88a10,10,0,0,1,1-.76l3.45,1.87a10.24,10.24,0,0,0-1,.77Z"/><path class="cls-11" d="M1386.71,668.39l-3.45-1.87a8.92,8.92,0,0,1,1.3-.75l3.45,1.87a10.45,10.45,0,0,0-1.3.75Z"/><path class="cls-10" d="M1388,667.64l-3.45-1.87a8,8,0,0,1,2.34-.7l3.45,1.87a8.55,8.55,0,0,0-2.34.7Z"/></g></g></g><path class="cls-19" d="M1390.35,666.94c4.42-.62,8,2.74,8,7.51s-3.6,9.13-8,9.75-8-2.74-8-7.51S1385.93,667.56,1390.35,666.94Z"/></g><g class="cls-6"><path class="cls-7" d="M1399.23,459l-.71,261.62a3.4,3.4,0,0,1-2,2.77,10.61,10.61,0,0,1-9.63,0,3.42,3.42,0,0,1-2-2.81l.72-261.62a3.41,3.41,0,0,0,2,2.8,10.58,10.58,0,0,0,9.63,0A3.38,3.38,0,0,0,1399.23,459Z"/><path class="cls-5" d="M1397.22,456.2c2.67,1.55,2.69,4,0,5.59a10.58,10.58,0,0,1-9.63,0c-2.67-1.54-2.68-4,0-5.57A10.58,10.58,0,0,1,1397.22,456.2Z"/></g><g class="cls-6"><path class="cls-18" d="M1273.39,611.39l6.67-3.88c1.26-.73,3-.62,4.9.48l-6.67,3.88C1276.37,610.77,1274.64,610.66,1273.39,611.39Z"/><path class="cls-18" d="M1289.82,624.3l-6.68,3.88c1.24-.72,2-2.25,2-4.42a15.15,15.15,0,0,0-6.86-11.89L1285,608a15.13,15.13,0,0,1,6.87,11.89C1291.82,622.05,1291.06,623.58,1289.82,624.3Z"/><path class="cls-19" d="M1278.29,611.87a15.15,15.15,0,0,1,6.86,11.89c0,4.37-3.1,6.14-6.91,3.94a15.12,15.12,0,0,1-6.86-11.89C1271.39,611.44,1274.49,609.68,1278.29,611.87Z"/></g><g class="cls-6"><path class="cls-7" d="M1084.05,726.69c0-3.09,2.13-4.36,4.8-2.85a10.58,10.58,0,0,1,4.86,8.31c0,3.08-2.12,4.36-4.79,2.85A10.59,10.59,0,0,1,1084.05,726.69Z"/><path class="cls-7" d="M1085.45,723.53,1275.25,614a3.36,3.36,0,0,1,3.39.3,10.62,10.62,0,0,1,4.87,8.32,3.4,3.4,0,0,1-1.41,3.15L1092.31,735.31a3.43,3.43,0,0,0,1.4-3.16,10.58,10.58,0,0,0-4.86-8.31A3.41,3.41,0,0,0,1085.45,723.53Z"/></g><g class="cls-6"><path class="cls-18" d="M1079.15,723.67l6.67-3.88c1.25-.73,3-.63,4.9.48l-6.67,3.88C1082.13,723,1080.4,722.94,1079.15,723.67Z"/><path class="cls-18" d="M1095.58,736.58l-6.68,3.88c1.24-.72,2-2.25,2-4.42a15.15,15.15,0,0,0-6.86-11.89l6.67-3.88a15.13,15.13,0,0,1,6.87,11.89C1097.58,734.33,1096.82,735.86,1095.58,736.58Z"/><path class="cls-19" d="M1084.05,724.15a15.15,15.15,0,0,1,6.86,11.89c0,4.37-3.1,6.13-6.91,3.94a15.12,15.12,0,0,1-6.86-11.89C1077.15,723.71,1080.24,722,1084.05,724.15Z"/></g><g class="cls-6"><path class="cls-7" d="M837.57,869.55c0-3.08,2.13-4.35,4.8-2.84a10.62,10.62,0,0,1,4.87,8.31c0,3.08-2.13,4.36-4.8,2.85A10.62,10.62,0,0,1,837.57,869.55Z"/><path class="cls-7" d="M839,866.4l240.91-140.06a3.39,3.39,0,0,1,3.4.31,10.61,10.61,0,0,1,4.86,8.31,3.44,3.44,0,0,1-1.4,3.16l-240.92,140a3.4,3.4,0,0,0,1.41-3.15,10.62,10.62,0,0,0-4.87-8.31A3.37,3.37,0,0,0,839,866.4Z"/></g><g class="cls-6"><path class="cls-18" d="M837.1,864.1l6.67-3.88c1.26-.73,3-.63,4.91.47L842,864.57C840.08,863.47,838.35,863.37,837.1,864.1Z"/><path class="cls-18" d="M853.53,877l-6.68,3.88c1.24-.72,2-2.24,2-4.41a15.12,15.12,0,0,0-6.86-11.9l6.68-3.88a15.15,15.15,0,0,1,6.86,11.9C855.53,874.76,854.77,876.28,853.53,877Z"/><path class="cls-7" d="M842,864.57a15.12,15.12,0,0,1,6.86,11.9c0,4.37-3.1,6.13-6.91,3.93a15.13,15.13,0,0,1-6.86-11.89C835.1,864.14,838.2,862.38,842,864.57Z"/></g><path class="cls-7" d="M754.38,600.52l-.72,261.62a3.38,3.38,0,0,1-2,2.78,10.58,10.58,0,0,1-9.63,0,3.37,3.37,0,0,1-2-2.8l.72-261.63a3.38,3.38,0,0,0,2,2.81,10.61,10.61,0,0,0,9.63,0A3.38,3.38,0,0,0,754.38,600.52Z"/><g class="cls-6"><path class="cls-7" d="M956.11,977.78v4c0,1.3-.86,2.6-2.57,3.59a13.77,13.77,0,0,1-12.5,0c-1.74-1-2.61-2.32-2.6-3.64v-4c0,1.32.86,2.64,2.6,3.64a13.77,13.77,0,0,0,12.5,0C955.25,980.38,956.11,979.08,956.11,977.78Z"/><path class="cls-8" d="M953.5,974.13c3.46,2,3.48,5.24,0,7.24a13.77,13.77,0,0,1-12.5,0c-3.46-2-3.48-5.24,0-7.24A13.77,13.77,0,0,1,953.5,974.13Z"/></g><g class="cls-6"><g class="cls-6"><g class="cls-22"><g class="cls-6"><path class="cls-10" d="M753.23,813.46l-3.44-1.87a7,7,0,0,1,2.76.14L756,813.6a7.27,7.27,0,0,0-2.77-.14Z"/><path class="cls-11" d="M756,813.6l-3.45-1.87a6.15,6.15,0,0,1,1.26.47l3.45,1.87a6.79,6.79,0,0,0-1.26-.47Z"/><path class="cls-12" d="M757.26,814.07l-3.45-1.87.25.12,3.45,1.88-.25-.13Z"/></g></g></g><g class="cls-6"><g class="cls-23"><g class="cls-6"><path class="cls-14" d="M748.93,830l-3.45-1.88a7.49,7.49,0,0,1-3.71-6.77,10,10,0,0,1,.62-3.4l3.45,1.88a9.71,9.71,0,0,0-.62,3.4,7.48,7.48,0,0,0,3.71,6.77Z"/><path class="cls-15" d="M745.84,819.82l-3.45-1.88a9.5,9.5,0,0,1,.61-1.34l3.44,1.87a10.25,10.25,0,0,0-.6,1.35Z"/><path class="cls-16" d="M746.44,818.47,743,816.6a8.85,8.85,0,0,1,.65-1.06l3.44,1.88a12.32,12.32,0,0,0-.65,1.05Z"/><path class="cls-17" d="M747.09,817.42l-3.44-1.88a9,9,0,0,1,.72-.91l3.44,1.87c-.25.29-.49.6-.72.92Z"/><path class="cls-18" d="M747.81,816.5l-3.44-1.87a7.84,7.84,0,0,1,.81-.82l3.45,1.87a10.57,10.57,0,0,0-.82.82Z"/><path class="cls-12" d="M748.63,815.68l-3.45-1.87a8.85,8.85,0,0,1,1-.77l3.44,1.88a8.65,8.65,0,0,0-1,.76Z"/><path class="cls-11" d="M749.59,814.92,746.15,813a8,8,0,0,1,1.3-.75l3.44,1.88a8.92,8.92,0,0,0-1.3.75Z"/><path class="cls-10" d="M750.89,814.17l-3.44-1.88a7.91,7.91,0,0,1,2.34-.7l3.44,1.87a8.34,8.34,0,0,0-2.34.71Z"/></g></g></g><path class="cls-19" d="M753.23,813.46c4.42-.62,8,2.74,8,7.51s-3.59,9.13-8,9.75-8-2.73-8-7.5S748.81,814.08,753.23,813.46Z"/></g><g class="cls-6"><path class="cls-5" d="M945.3,938c-2.67,1.55-4.84.31-4.86-2.75a10.63,10.63,0,0,1,4.8-8.36c2.67-1.54,4.84-.31,4.85,2.75A10.62,10.62,0,0,1,945.3,938Z"/><path class="cls-7" d="M941.86,938.32l-192.81-111a3.38,3.38,0,0,1-1.42-3.1,10.66,10.66,0,0,1,4.8-8.35,3.4,3.4,0,0,1,3.44-.34l192.81,111a3.4,3.4,0,0,0-3.44.34,10.63,10.63,0,0,0-4.8,8.36A3.38,3.38,0,0,0,941.86,938.32Z"/></g><g class="cls-6"><g class="cls-6"><g class="cls-24"><g class="cls-6"><path class="cls-10" d="M945.56,924l-3.45-1.88a7.28,7.28,0,0,1,2.77.14l3.44,1.88a7,7,0,0,0-2.76-.14Z"/><path class="cls-11" d="M948.32,924.1l-3.44-1.88a7.59,7.59,0,0,1,1.26.47l3.45,1.88a6,6,0,0,0-1.27-.47Z"/><path class="cls-12" d="M949.59,924.57l-3.45-1.88.24.13,3.45,1.87-.24-.12Z"/></g></g></g><g class="cls-6"><g class="cls-25"><g class="cls-6"><path class="cls-14" d="M941.25,940.49l-3.44-1.88a7.46,7.46,0,0,1-3.71-6.77,9.71,9.71,0,0,1,.62-3.4l3.44,1.87a10,10,0,0,0-.61,3.4,7.49,7.49,0,0,0,3.7,6.78Z"/><path class="cls-15" d="M938.16,930.31l-3.44-1.87a10.25,10.25,0,0,1,.6-1.35l3.45,1.88a10.79,10.79,0,0,0-.61,1.34Z"/><path class="cls-16" d="M938.77,929l-3.45-1.88A12.32,12.32,0,0,1,936,926l3.45,1.87a10.36,10.36,0,0,0-.65,1.06Z"/><path class="cls-17" d="M939.42,927.91,936,926c.23-.32.47-.63.72-.92l3.45,1.88a9,9,0,0,0-.72.91Z"/><path class="cls-18" d="M940.14,927l-3.45-1.88a10.57,10.57,0,0,1,.82-.82l3.44,1.88a10.47,10.47,0,0,0-.81.82Z"/><path class="cls-12" d="M941,926.18l-3.44-1.88a8.65,8.65,0,0,1,1-.76l3.45,1.87a8.85,8.85,0,0,0-1,.77Z"/><path class="cls-11" d="M941.92,925.41l-3.45-1.87a8.92,8.92,0,0,1,1.3-.75l3.45,1.87a9.33,9.33,0,0,0-1.3.75Z"/><path class="cls-10" d="M943.22,924.66l-3.45-1.87a8.34,8.34,0,0,1,2.34-.71l3.45,1.88a8,8,0,0,0-2.34.7Z"/></g></g></g><ellipse class="cls-19" cx="945.54" cy="932.59" rx="8.98" ry="7.68" transform="translate(-325.51 1317.56) rotate(-61.45)"/></g><g class="cls-6"><path class="cls-7" d="M954.45,716l-.72,261.63a3.42,3.42,0,0,1-2,2.77,10.61,10.61,0,0,1-9.63,0,3.42,3.42,0,0,1-2-2.81L940.82,716a3.41,3.41,0,0,0,2,2.81,10.55,10.55,0,0,0,9.63,0A3.39,3.39,0,0,0,954.45,716Z"/><path class="cls-5" d="M952.43,713.22c2.67,1.54,2.69,4,0,5.58a10.55,10.55,0,0,1-9.63,0c-2.67-1.54-2.68-4,0-5.58A10.61,10.61,0,0,1,952.43,713.22Z"/></g><g id="desk-2" data-name="desk"><polygon class="cls-3" points="702.75 583.73 925.05 712.07 1414.09 429.72 1191.82 301.37 702.75 583.73"/><polygon class="cls-26" points="925.05 712.07 924.92 737.66 1414.09 455.38 1414.09 429.72 925.05 712.07"/></g><polygon class="cls-27" points="702.75 583.73 925.05 712.07 924.92 737.66 702.75 609.39 702.75 583.73"/></g><path class="cls-28" d="M1157.83,861.91c0,6,4.2,13.27,9.38,16.27,2.77,1.6,5.28,1.66,7,.44a3.7,3.7,0,0,0,.86-.82,7.6,7.6,0,0,0,1.54-5c0-6-4.2-13.27-9.39-16.26a7.57,7.57,0,0,0-5.15-1.19,3.72,3.72,0,0,0-1.12.34l0,0C1159,856.56,1157.83,858.75,1157.83,861.91Z"/><path class="cls-29" d="M1160.94,855.65a3.72,3.72,0,0,1,1.12-.34,7.57,7.57,0,0,1,5.15,1.19c5.19,3,9.39,10.27,9.39,16.26a7.6,7.6,0,0,1-1.54,5,3.7,3.7,0,0,1-.86.82l2-1.17.17-.09c1.79-.93,2.91-3.08,2.91-6.16,0-6-4.2-13.26-9.39-16.26-2.68-1.56-5.1-1.64-6.81-.56Z"/><polygon class="cls-30" points="1170.37 857.04 1170.37 872.27 1176.6 875.88 1176.6 860.64 1173.06 858.6 1170.37 857.04"/><polygon class="cls-31" points="1176.6 860.64 1176.6 875.88 1179.29 874.32 1179.29 859.09 1176.6 860.64"/><polygon class="cls-31" points="1170.37 857.04 1173.06 858.6 1176.6 860.64 1179.29 859.09 1173.06 855.48 1170.37 857.04"/><path class="cls-29" d="M1155.53,858.78a3.67,3.67,0,0,1,1.15-.35,7.52,7.52,0,0,1,5.14,1.18c5.2,3,9.4,10.27,9.4,16.27a8.62,8.62,0,0,1-.88,4.06,4.94,4.94,0,0,1-.66,1,4.39,4.39,0,0,1-1,.91l2.29-1.32h0v0c1.81-.92,3-3.05,3-6.16,0-6-4.2-13.27-9.39-16.27-2.78-1.6-5.28-1.65-7-.42Z"/><path class="cls-30" d="M1152.45,865c0,6,4.2,13.27,9.37,16.26,2.53,1.46,4.83,1.63,6.5.75l.34-.21a4.39,4.39,0,0,0,1-.91,4.94,4.94,0,0,0,.66-1,8.62,8.62,0,0,0,.88-4.06c0-6-4.2-13.27-9.4-16.27a7.52,7.52,0,0,0-5.14-1.18,3.67,3.67,0,0,0-1.15.35l-.12.07C1153.58,859.76,1152.45,861.93,1152.45,865Z"/><path class="cls-28" d="M1179.45,942.33c0,6,4.2,13.27,9.38,16.26,2.77,1.61,5.28,1.66,7,.44a3.87,3.87,0,0,0,.86-.81,7.6,7.6,0,0,0,1.54-5c0-6-4.2-13.27-9.39-16.27a7.55,7.55,0,0,0-5.15-1.18,3.58,3.58,0,0,0-1.11.34l-.06,0C1180.64,937,1179.45,939.16,1179.45,942.33Z"/><path class="cls-29" d="M1182.57,936.07a3.58,3.58,0,0,1,1.11-.34,7.55,7.55,0,0,1,5.15,1.18c5.19,3,9.39,10.27,9.39,16.27a7.6,7.6,0,0,1-1.54,5,3.87,3.87,0,0,1-.86.81l2-1.17.17-.08c1.79-.93,2.91-3.08,2.91-6.16,0-6-4.2-13.27-9.39-16.27-2.68-1.55-5.1-1.64-6.81-.55Z"/><polygon class="cls-30" points="1191.99 937.45 1191.99 952.68 1198.22 956.29 1198.22 941.06 1194.68 939.01 1191.99 937.45"/><polygon class="cls-31" points="1198.22 941.06 1198.22 956.29 1200.91 954.73 1200.91 939.5 1198.22 941.06"/><polygon class="cls-31" points="1191.99 937.45 1194.68 939.01 1198.22 941.06 1200.91 939.5 1194.68 935.9 1191.99 937.45"/><path class="cls-29" d="M1177.15,939.2a3.76,3.76,0,0,1,1.15-.36,7.57,7.57,0,0,1,5.15,1.19c5.19,3,9.39,10.27,9.39,16.26a8.59,8.59,0,0,1-.88,4.06,4.67,4.67,0,0,1-.66,1,4.24,4.24,0,0,1-1,.92l2.29-1.32s0,0,0,0v0c1.82-.91,3-3,3-6.16,0-6-4.2-13.27-9.39-16.26-2.78-1.61-5.28-1.66-7-.42Z"/><path class="cls-30" d="M1174.07,945.44c0,6,4.2,13.27,9.38,16.27,2.52,1.45,4.82,1.62,6.49.74l.34-.2a4.24,4.24,0,0,0,1-.92,4.67,4.67,0,0,0,.66-1,8.59,8.59,0,0,0,.88-4.06c0-6-4.2-13.27-9.39-16.26a7.57,7.57,0,0,0-5.15-1.19,3.76,3.76,0,0,0-1.15.36l-.12.06C1175.2,940.18,1174.07,942.34,1174.07,945.44Z"/><path class="cls-30" d="M1356.34,956c0,6-4.2,13.27-9.37,16.27-2.78,1.61-5.28,1.66-7,.44a3.92,3.92,0,0,1-.87-.81,7.63,7.63,0,0,1-1.54-5c0-6,4.2-13.27,9.4-16.26a7.59,7.59,0,0,1,5.14-1.19,3.72,3.72,0,0,1,1.12.34l0,0C1355.16,950.65,1356.34,952.83,1356.34,956Z"/><path class="cls-29" d="M1353.23,949.73a3.72,3.72,0,0,0-1.12-.34,7.59,7.59,0,0,0-5.14,1.19c-5.2,3-9.4,10.27-9.4,16.26a7.63,7.63,0,0,0,1.54,5,3.92,3.92,0,0,0,.87.81l-2-1.17-.17-.08c-1.79-.93-2.91-3.08-2.91-6.16,0-6,4.2-13.27,9.4-16.27,2.67-1.56,5.09-1.64,6.8-.56Z"/><polygon class="cls-31" points="1343.8 951.12 1343.8 966.35 1337.57 969.96 1337.57 954.73 1341.11 952.68 1343.8 951.12"/><polygon class="cls-30" points="1337.57 954.73 1337.57 969.96 1334.88 968.4 1334.88 953.17 1337.57 954.73"/><polygon class="cls-31" points="1343.8 951.12 1341.11 952.68 1337.57 954.73 1334.88 953.17 1341.11 949.56 1343.8 951.12"/><path class="cls-29" d="M1358.64,952.86a3.67,3.67,0,0,0-1.15-.35,7.52,7.52,0,0,0-5.14,1.18c-5.2,3-9.39,10.28-9.39,16.27a8.5,8.5,0,0,0,.88,4.06,4.21,4.21,0,0,0,.66,1,4,4,0,0,0,1,.91l-2.28-1.32h0v0c-1.81-.91-3-3-3-6.16,0-6,4.2-13.27,9.4-16.26,2.77-1.61,5.28-1.66,7-.43Z"/><path class="cls-31" d="M1361.72,959.11c0,6-4.19,13.27-9.37,16.26-2.52,1.46-4.83,1.63-6.5.75l-.34-.21a4,4,0,0,1-1-.91,4.21,4.21,0,0,1-.66-1A8.5,8.5,0,0,1,1343,970c0-6,4.19-13.27,9.39-16.27a7.52,7.52,0,0,1,5.14-1.18,3.67,3.67,0,0,1,1.15.35l.12.07C1360.59,953.84,1361.72,956,1361.72,959.11Z"/><path class="cls-30" d="M1419.22,884c0,6-4.19,13.27-9.37,16.27-2.78,1.61-5.28,1.66-7,.44a4.15,4.15,0,0,1-.87-.81,7.63,7.63,0,0,1-1.54-5c0-6,4.2-13.27,9.4-16.26a7.59,7.59,0,0,1,5.14-1.19,3.72,3.72,0,0,1,1.12.34l.05,0C1418,878.63,1419.22,880.81,1419.22,884Z"/><path class="cls-29" d="M1416.11,877.71a3.72,3.72,0,0,0-1.12-.34,7.59,7.59,0,0,0-5.14,1.19c-5.2,3-9.4,10.27-9.4,16.26a7.63,7.63,0,0,0,1.54,5,4.15,4.15,0,0,0,.87.81l-2-1.17-.17-.08c-1.79-.93-2.91-3.08-2.91-6.16,0-6,4.2-13.27,9.4-16.27,2.67-1.56,5.09-1.64,6.8-.56Z"/><polygon class="cls-31" points="1406.68 879.1 1406.68 894.33 1400.45 897.94 1400.45 882.71 1403.99 880.66 1406.68 879.1"/><polygon class="cls-30" points="1400.45 882.71 1400.45 897.94 1397.76 896.38 1397.76 881.15 1400.45 882.71"/><polygon class="cls-31" points="1406.68 879.1 1403.99 880.66 1400.45 882.71 1397.76 881.15 1403.99 877.54 1406.68 879.1"/><path class="cls-29" d="M1421.53,880.84a3.81,3.81,0,0,0-1.16-.35,7.53,7.53,0,0,0-5.14,1.18c-5.2,3-9.39,10.28-9.39,16.27a8.5,8.5,0,0,0,.88,4.06,4.21,4.21,0,0,0,.66,1,4,4,0,0,0,1,.91l-2.28-1.32s0,0,0,0v0c-1.81-.91-2.94-3-2.94-6.16,0-6,4.19-13.27,9.39-16.26,2.77-1.61,5.28-1.66,7-.43Z"/><path class="cls-31" d="M1424.61,887.09c0,6-4.2,13.27-9.38,16.26-2.52,1.46-4.82,1.63-6.5.75l-.34-.21a4,4,0,0,1-1-.91,4.21,4.21,0,0,1-.66-1,8.5,8.5,0,0,1-.88-4.06c0-6,4.19-13.27,9.39-16.27a7.53,7.53,0,0,1,5.14-1.18,3.81,3.81,0,0,1,1.16.35l.11.07C1423.47,881.82,1424.61,884,1424.61,887.09Z"/><path class="cls-30" d="M1319.84,830.51c0,6-4.2,13.26-9.38,16.26-2.77,1.61-5.28,1.66-7,.44a3.87,3.87,0,0,1-.86-.81,7.63,7.63,0,0,1-1.54-5c0-6,4.2-13.26,9.39-16.26a7.54,7.54,0,0,1,5.15-1.18,3.56,3.56,0,0,1,1.11.33l0,0C1318.65,825.16,1319.84,827.34,1319.84,830.51Z"/><path class="cls-29" d="M1316.72,824.24a3.56,3.56,0,0,0-1.11-.33,7.54,7.54,0,0,0-5.15,1.18c-5.19,3-9.39,10.27-9.39,16.26a7.63,7.63,0,0,0,1.54,5,3.87,3.87,0,0,0,.86.81l-2-1.17-.17-.08c-1.8-.93-2.91-3.08-2.91-6.16,0-6,4.19-13.27,9.39-16.27,2.67-1.55,5.09-1.64,6.8-.56Z"/><polygon class="cls-31" points="1307.3 825.63 1307.3 840.86 1301.07 844.47 1301.07 829.24 1304.61 827.19 1307.3 825.63"/><polygon class="cls-30" points="1301.07 829.24 1301.07 844.47 1298.38 842.91 1298.38 827.68 1301.07 829.24"/><polygon class="cls-31" points="1307.3 825.63 1304.61 827.19 1301.07 829.24 1298.38 827.68 1304.61 824.08 1307.3 825.63"/><path class="cls-29" d="M1322.14,827.38A3.85,3.85,0,0,0,1321,827a7.55,7.55,0,0,0-5.15,1.18c-5.19,3-9.39,10.28-9.39,16.27a8.5,8.5,0,0,0,.88,4.06,4.94,4.94,0,0,0,.66,1,4.24,4.24,0,0,0,1,.92l-2.29-1.32a0,0,0,0,0,0,0v0c-1.81-.91-2.94-3-2.94-6.16,0-6,4.2-13.27,9.39-16.26,2.78-1.61,5.28-1.66,7-.43Z"/><path class="cls-31" d="M1325.22,833.62c0,6-4.2,13.27-9.38,16.26-2.52,1.46-4.82,1.63-6.5.75l-.33-.2a4.24,4.24,0,0,1-1-.92,4.94,4.94,0,0,1-.66-1,8.5,8.5,0,0,1-.88-4.06c0-6,4.2-13.27,9.39-16.27A7.55,7.55,0,0,1,1321,827a3.85,3.85,0,0,1,1.15.36l.12.06C1324.08,828.36,1325.22,830.52,1325.22,833.62Z"/><polygon class="cls-30" points="1296.55 881.1 1299.43 884.35 1307.35 893.34 1409.14 884.03 1409.14 870.81 1296.55 881.1"/><polygon class="cls-29" points="1254.88 887.43 1189.45 925.21 1200.91 931.83 1201.18 931.98 1281.78 885.45 1333.53 944.1 1339.05 942.47 1348.3 939.75 1307.35 893.34 1299.43 884.35 1296.55 881.1 1409.14 870.81 1406.54 861.35 1297.68 871.3 1293.96 871.64 1308.26 819.55 1311.8 806.64 1295.41 805.15 1277.58 870.15 1176.02 840.27 1168.48 848.79 1270.05 878.68 1267.2 880.33 1254.88 887.43"/><polygon class="cls-30" points="1168.48 848.79 1168.48 862.03 1254.88 887.43 1267.2 880.33 1270.05 878.68 1168.48 848.79"/><polygon class="cls-30" points="1189.45 925.21 1189.45 938.44 1201.18 945.21 1200.91 931.83 1189.45 925.21"/><polygon class="cls-31" points="1200.91 931.83 1201.18 945.21 1281.78 898.67 1281.78 885.45 1201.18 931.98 1200.91 931.83"/><polygon class="cls-30" points="1281.78 885.45 1281.78 898.67 1333.53 957.31 1333.53 944.1 1281.78 885.45"/><polygon class="cls-31" points="1333.53 944.1 1333.53 957.31 1348.3 952.96 1348.3 939.75 1339.05 942.47 1333.53 944.1"/><polygon class="cls-31" points="1293.96 871.64 1297.68 871.3 1311.8 819.87 1311.8 806.64 1308.26 819.55 1293.96 871.64"/><path class="cls-31" d="M1284.09,730V885.45a20.82,20.82,0,0,0,10.24-2.45c3.07-1.76,4.45-4.11,4.2-6.42h0V730Z"/><path class="cls-30" d="M1269.62,876.58h0c-.24,2.31,1.15,4.66,4.19,6.42a20.87,20.87,0,0,0,10.24,2.45V730h-14.47Z"/><path class="cls-30" d="M1368.37,712.4s-1.16,4.22,3.64,6.63,6.67,2.5,6.67,2.5l-2.36-5.94Z"/><path class="cls-30" d="M1288.53,666.31a31.33,31.33,0,0,0,16.45,14l-4.81-13.24Z"/><path class="cls-30" d="M1288.53,666.31l9,5.2s-21.46-68.06-10.46-79.11a5.11,5.11,0,0,1,4.37-1.47,33.71,33.71,0,0,1,4.08.46c25,4.38,37.84,35.3,87.48,64,0,0,11.12,4,7.36,14.87s-22,42.19-22,42.19l7.35,4.24,5.41-9.48,18.35-32.11a22.2,22.2,0,0,0,.89-8.74c-.49-5.16-3-11.59-11.08-16.28-35.85-19.81-62.15-53.15-86.41-65.37a42.08,42.08,0,0,0-13.56-4.44c-.17,0-.34,0-.52-.06a9.92,9.92,0,0,0-5.39.74l-.07,0C1264.45,589.85,1288.53,666.31,1288.53,666.31Z"/><path class="cls-29" d="M1283.41,580.9a9.92,9.92,0,0,1,5.39-.74c.18,0,.35,0,.52.06a42.08,42.08,0,0,1,13.56,4.44c24.26,12.22,50.56,45.56,86.41,65.37,7.22,4.18,10,9.74,10.84,14.54l10.92-6.3c-.85-4.82-3.63-10.37-10.84-14.54-42.88-23.7-72.08-66.73-100.48-69.88a9.2,9.2,0,0,0-7.14,1.84h0Z"/><path class="cls-31" d="M1375.72,716.64l10.92-6.3,23.76-41.59a22.37,22.37,0,0,0,.65-10.48l-10.92,6.3a15.45,15.45,0,0,1,.24,1.74,22.2,22.2,0,0,1-.89,8.74l-18.35,32.11Z"/><path class="cls-31" d="M1297.54,671.51l10.92-6.31s-17.15-54.38-12.93-73.81a33.71,33.71,0,0,0-4.08-.46,5.11,5.11,0,0,0-4.37,1.47C1276.08,603.45,1297.54,671.51,1297.54,671.51Z"/><path class="cls-31" d="M1297.54,671.51l10.92-6.31s1.75,5.86.88,15.9C1309.34,681.1,1300.56,681.71,1297.54,671.51Z"/><path class="cls-31" d="M1386.64,710.34l-5.59,11.55s-6.68,0-5.33-5.25Z"/><path class="cls-32" d="M1269.65,809.08l131-75.66c22.45-48.62,34.61-109.49,35.84-175.57a53.94,53.94,0,0,0-4.85-7.23c-4.74-5.77-9.18-7.07-15.46-6.15h0c-19.1.43-73,8.25-132.53,75.9,7.1-1.33,11.87-.31,17,5.92a51.87,51.87,0,0,1,4.87,7.22C1304.26,699.59,1292.1,760.47,1269.65,809.08Z"/><path class="cls-32" d="M1139.8,710.11s12.42,2.54,31.51,10.8A265.49,265.49,0,0,1,1199,734.84c22.29,12.86,31.17,19.4,39.13,25.49,3.47,2.65,9,16.87,10.92,21.07,54-17.6,88-51.77,108.44-68,13.53-10.68,20.07-18,20.07-18a29.15,29.15,0,0,0-8.37-10.75c-8-6.09-16.85-12.62-39.14-25.48-33.86-19.56-59.16-24.73-59.16-24.73S1192.73,657.18,1139.8,710.11Z"/><path class="cls-33" d="M1139.8,710.11v23.95l4.36,2.52L1249,797.11V781.4a24.87,24.87,0,0,0-2.54-10.33,29.14,29.14,0,0,0-8.38-10.74c-8-6.09-16.84-12.63-39.13-25.49a265.49,265.49,0,0,0-27.65-13.93C1152.22,712.65,1139.8,710.11,1139.8,710.11Z"/><path class="cls-30" d="M1139.8,734.06v5s46.24,55.45,133.84,77.46v-5l-129.48-74.93Z"/><path class="cls-30" d="M1139.8,719V739.1l100.47,58V781.4a15.35,15.35,0,0,0-1-5.11,19.79,19.79,0,0,0-6.29-8.86c-8.25-6.32-16.84-12.56-38.44-25a240.85,240.85,0,0,0-50.42-22.24C1142.41,719.66,1141,719.25,1139.8,719Z"/><path class="cls-29" d="M1139.8,719c1.15.3,2.61.71,4.36,1.22a240.85,240.85,0,0,1,50.42,22.24c21.6,12.46,30.19,18.7,38.44,25a19.79,19.79,0,0,1,6.29,8.86l4.36-2.52a19.78,19.78,0,0,0-6.28-8.87c-8.26-6.31-16.84-12.56-38.43-25-26.1-15.07-47.21-21.47-54.8-23.46Z"/><path class="cls-31" d="M1239.31,776.29a15.35,15.35,0,0,1,1,5.11v15.71l4.36-2.52V778.88a15.35,15.35,0,0,0-1-5.11Z"/><path class="cls-33" d="M1249,797.11c.83.89,20.64,12,20.64,12,22.45-48.61,34.61-109.49,35.84-175.57a51.87,51.87,0,0,0-4.87-7.22c-5.1-6.23-9.87-7.25-17-5.92-6.14,5-10.29,45.91-6.14,70.66C1254.32,719.82,1244.44,786.17,1249,797.11Z"/><path class="cls-30" d="M1248.4,797.3l18.47,10.85c.59-1.34,1.18-2.69,1.76-4,19.89-46.26,31-102,32.39-163.31-.91-1.45-6.07-7.82-6.88-8.8a11.81,11.81,0,0,0-3.11-2.83,10.15,10.15,0,0,0-5.59-1.12,22,22,0,0,0-3.11.34c-4.67,5.33-9,42.36-4.91,66.59l.37,2.23-1,1.18C1254.41,726.23,1246.71,786.13,1248.4,797.3Z"/><path class="cls-30" d="M1269.65,809.08l4,2.25c22.43-48.61,34.59-107.51,35.82-173.57l-.16-.17-3.81-4.08C1304.26,699.59,1292.1,760.47,1269.65,809.08Z"/><path class="cls-31" d="M1273.64,811.33l131-75.67c22.45-48.6,34.6-107.51,35.83-173.56l-4.14,2.39-126.92,73.27C1308.23,703.82,1296.07,762.72,1273.64,811.33Z"/><path class="cls-29" d="M1305.49,633.51c.23.14,3.1,3.29,3.81,4.08l.16.17,126.92-73.27,4.14-2.39s-3.7-4.09-4-4.25Z"/><path class="cls-29" d="M1282.33,628.38a22,22,0,0,1,3.11-.34,10.15,10.15,0,0,1,5.59,1.12,11.81,11.81,0,0,1,3.11,2.83c.81,1,6,7.35,6.88,8.8l4.36-2.52c-.91-1.45-6.07-7.82-6.87-8.81a12.11,12.11,0,0,0-3.12-2.82c-2.09-1.2-4.79-1.45-8.7-.78Z"/><path class="cls-31" d="M1266.87,808.15l4.36-2.52c21-47,32.74-104.21,34.15-167.36l-4.36,2.52c-1.38,61.35-12.5,117.05-32.39,163.31C1268.05,805.46,1267.46,806.81,1266.87,808.15Z"/><polygon class="cls-31" points="1273.64 811.33 1273.64 816.56 1404.69 740.89 1404.69 735.66 1273.64 811.33"/><path class="cls-30" d="M1226.63,796.12s-1.16,4.21,3.65,6.62,6.66,2.5,6.66,2.5l-2.36-5.94Z"/><path class="cls-30" d="M1146.79,750a31.29,31.29,0,0,0,16.45,14l-4.81-13.24Z"/><path class="cls-30" d="M1146.79,750l9,5.2s-21.47-68.06-10.47-79.11a5.13,5.13,0,0,1,4.38-1.47,35.41,35.41,0,0,1,4.07.46c25,4.38,37.84,35.3,87.48,63.95,0,0,11.12,4,7.37,14.87s-22,42.2-22,42.2l7.35,4.23,5.41-9.48,18.35-32.11a22.31,22.31,0,0,0,.9-8.74c-.5-5.15-3-11.59-11.09-16.28-35.85-19.81-62.15-53.15-86.41-65.37a42.11,42.11,0,0,0-13.55-4.44l-.52-.06a9.94,9.94,0,0,0-5.4.74l-.06,0C1122.72,673.56,1146.79,750,1146.79,750Z"/><path class="cls-29" d="M1141.67,664.61a9.94,9.94,0,0,1,5.4-.74l.52.06a42.11,42.11,0,0,1,13.55,4.44c24.26,12.22,50.56,45.56,86.41,65.37,7.23,4.18,10,9.74,10.85,14.54l10.92-6.3c-.86-4.82-3.63-10.37-10.85-14.54-42.87-23.7-72.08-66.73-100.48-69.88a9.21,9.21,0,0,0-7.14,1.84h0Z"/><path class="cls-31" d="M1234,800.35l10.92-6.3,23.76-41.59a22.45,22.45,0,0,0,.66-10.48l-10.92,6.3q.16.9.24,1.74a22.31,22.31,0,0,1-.9,8.74l-18.35,32.11Z"/><path class="cls-31" d="M1155.81,755.22l10.92-6.31s-17.15-54.37-12.94-73.81a35.41,35.41,0,0,0-4.07-.46,5.13,5.13,0,0,0-4.38,1.47C1134.34,687.16,1155.81,755.22,1155.81,755.22Z"/><path class="cls-31" d="M1155.81,755.22l10.92-6.31s1.75,5.86.87,15.9C1167.6,764.81,1158.82,765.43,1155.81,755.22Z"/><path class="cls-31" d="M1244.9,794.05l-5.59,11.55s-6.68,0-5.33-5.25Z"/><path class="cls-4" d="M1231.36,388.06c0,8.21-12.16,14.87-27.08,14.87s-27-6.43-27-14.64,12.1-15.08,27-15.08S1231.36,379.85,1231.36,388.06Z"/><polygon class="cls-34" points="1171.65 336.59 1176.86 386.63 1224.27 386.63 1229.51 336.59 1171.65 336.59"/><path class="cls-34" d="M1217.3,376.24c-9.3-5.36-24.32-5.36-33.55,0s-9.18,14.07.11,19.43,24.31,5.37,33.54,0,9.19-14.07-.1-19.43Z"/><path class="cls-35" d="M1217.3,326.87c-9.3-5.36-24.32-5.36-33.55,0-5.69,3.31-7.86,7.89-6.5,12.17.83-2.63,3-5.15,6.5-7.18,9.23-5.37,24.25-5.37,33.55,0,3.56,2.05,5.76,4.6,6.61,7.26C1225.27,334.82,1223.06,330.2,1217.3,326.87Z"/><path class="cls-36" d="M1221,324.74c-11.34-6.54-29.65-6.54-40.91,0s-11.2,17-.17,23.52l.3.18c11.33,6.54,29.65,6.55,40.91,0l.16-.1C1232.36,341.79,1232.24,331.25,1221,324.74Zm2.94,14.38c-.83,2.63-3,5.15-6.51,7.18-9.23,5.37-24.25,5.37-33.54,0-3.57-2.05-5.77-4.6-6.61-7.26-1.36-4.28.81-8.86,6.5-12.17,9.23-5.36,24.25-5.36,33.55,0C1223.06,330.2,1225.27,334.82,1223.91,339.12Z"/><path class="cls-37" d="M1223.91,339.12c-.85-2.66-3.05-5.21-6.61-7.26-9.3-5.37-24.32-5.37-33.55,0-3.5,2-5.67,4.55-6.5,7.18-1.36-4.28.81-8.86,6.5-12.17,9.23-5.36,24.25-5.36,33.55,0C1223.06,330.2,1225.27,334.82,1223.91,339.12Z"/><path class="cls-38" d="M1223.91,339.12c-.83,2.63-3,5.15-6.51,7.18-9.23,5.37-24.25,5.37-33.54,0-3.57-2.05-5.77-4.6-6.61-7.26.83-2.63,3-5.15,6.5-7.18,9.23-5.37,24.25-5.37,33.55,0C1220.86,333.91,1223.06,336.46,1223.91,339.12Z"/><ellipse class="cls-39" cx="1200.91" cy="341.76" rx="11.08" ry="5.5"/><path class="cls-40" d="M1206.55,262.93s4.82,18.72-10.31,43.21,4.07,36.41,4.16,36,16.64-49.08,12.75-64.33C1210,265.54,1206.55,262.93,1206.55,262.93Z"/><path class="cls-41" d="M1197.88,243.19s-13.19,19.39-.5,55.47,1.47,44,1.47,44,23.61-12.79,15.32-39.57S1196.88,253.79,1197.88,243.19Z"/><path class="cls-42" d="M1202.09,344.63s-15.21,1.74-16.22-22-4.46-41.14-13.11-45.94c0,0,23.23,3.17,27.42,20.39S1207.64,332.63,1202.09,344.63Z"/><path class="cls-43" d="M1200,344.55s-4.12-14.28,3.19-31.17,25.72-28.83,36.14-33.12c0,0-14.71,14.63-20.76,33.12S1210.09,346.06,1200,344.55Z"/><g id="monitor"><polygon class="cls-44" points="953.7 480.39 1012.76 514.49 1083.64 473.57 1024.58 439.48 953.7 480.39"/><ellipse class="cls-3" cx="1008.73" cy="470.79" rx="25.69" ry="12.01"/><polygon class="cls-45" points="1000.95 480.39 1024.58 466.76 1024.58 398.56 1000.95 412.2 1000.95 480.39"/><polygon class="cls-46" points="1000.95 480.39 989.14 473.57 989.14 405.38 1000.95 412.2 1000.95 480.39"/><polygon class="cls-47" points="865.11 333.77 865.11 511.08 1136.79 354.23 1136.79 176.92 865.11 333.77"/><polygon class="cls-48" points="871.02 337.18 1130.88 187.15 1130.88 350.82 871.02 500.85 871.02 337.18"/><polygon class="cls-49" points="865.11 333.77 859.21 330.36 859.21 507.67 865.11 511.08 865.11 333.77"/><polygon class="cls-50" points="859.21 330.36 1130.88 173.51 1136.79 176.92 865.11 333.77 859.21 330.36"/><polygon class="cls-45" points="1012.76 514.49 1012.76 518.19 1083.64 477.67 1083.64 473.57 1012.76 514.49"/><polygon class="cls-46" points="953.7 480.39 1012.76 514.49 1012.76 518.19 953.7 484.24 953.7 480.39"/><polygon class="cls-3" points="1119.07 363.1 1119.07 360.5 1127.31 355.62 1127.31 358.34 1119.07 363.1"/><polygon class="cls-3" points="1116.46 364.6 1116.46 361.77 1115.01 362.62 1115.01 365.44 1116.46 364.6"/><polygon class="cls-3" points="1114.04 366.01 1114.04 363.17 1112.58 364.02 1112.58 366.85 1114.04 366.01"/><polygon class="cls-3" points="1111.59 367.42 1111.59 364.58 1110.13 365.43 1110.13 368.26 1111.59 367.42"/><polygon class="cls-3" points="1109.16 368.82 1109.16 365.99 1107.7 366.83 1107.7 369.66 1109.16 368.82"/></g><path class="cls-3" d="M1074.38,235.84c-.89.52-1.62.11-1.62-.92a3.55,3.55,0,0,1,1.61-2.78c.89-.52,1.62-.1,1.62.92a3.55,3.55,0,0,1-1.61,2.78Zm5-2.89c-.89.52-1.62.1-1.62-.92a3.58,3.58,0,0,1,1.61-2.79c.89-.51,1.61-.1,1.62.93a3.55,3.55,0,0,1-1.61,2.78Zm5-2.89c-.89.52-1.61.1-1.61-.92a3.54,3.54,0,0,1,1.6-2.79c.89-.51,1.62-.1,1.62.93a3.49,3.49,0,0,1-1.61,2.78Zm2.27-7.26L916.65,321a8.58,8.58,0,0,0-3.87,6.7l.38,134.62c0,2.45,1.76,3.45,3.89,2.21l170-98.16a8.53,8.53,0,0,0,3.86-6.69v-3.52L913.15,458.75l-.36-127.58,11.32-6.54,166.45-96.1V225c0-2.45-1.75-3.45-3.89-2.21Z"/><path class="cls-51" d="M935.16,425.7c-.29.16-.52,0-.52-.3v-2.19a1.12,1.12,0,0,1,.52-.89l26.71-15.43c.28-.16.51,0,.51.3v2.2a1.13,1.13,0,0,1-.51.88L935.16,425.7Zm30.09-17.38c-.29.17-.52,0-.52-.29v-2.2a1.08,1.08,0,0,1,.51-.88L985.86,393c.28-.16.51,0,.51.3v2.19a1.13,1.13,0,0,1-.51.89l-20.62,11.9Zm24.5-14.14c-.28.16-.51,0-.51-.3v-2.2a1.13,1.13,0,0,1,.51-.88l16.64-9.61c.29-.16.52,0,.52.29v2.2a1.12,1.12,0,0,1-.51.89l-16.64,9.61Zm20.45-11.81c-.28.16-.51,0-.51-.29v-2.2a1.13,1.13,0,0,1,.51-.89l42.27-24.4c.28-.17.51,0,.51.29v2.2a1.15,1.15,0,0,1-.51.89l-42.27,24.4Zm-66.27,30.15c-.28.17-.51,0-.51-.29V410a1.13,1.13,0,0,1,.51-.88l9.21-5.32c.29-.16.52,0,.52.29v2.2a1.12,1.12,0,0,1-.51.89l-9.21,5.31Zm13.3-7.67c-.28.16-.51,0-.51-.29v-2.2a1.15,1.15,0,0,1,.51-.89l18.52-10.69c.28-.16.51,0,.51.29v2.2a1.13,1.13,0,0,1-.51.89l-18.52,10.69Zm23.09-13.33c-.28.16-.51,0-.51-.3V389a1.13,1.13,0,0,1,.51-.89l28.6-16.51c.28-.16.51,0,.51.29v2.2a1.15,1.15,0,0,1-.51.89l-28.6,16.51Zm-44.48,19.22c-.28.17-.51,0-.52-.29v-2.2a1.15,1.15,0,0,1,.51-.89l26.72-15.42c.28-.16.51,0,.51.29v2.2a1.13,1.13,0,0,1-.52.89l-26.71,15.42Zm30.09-17.37c-.28.16-.51,0-.51-.29v-2.21a1.13,1.13,0,0,1,.51-.88l20.62-11.91c.28-.16.51,0,.52.3v2.2a1.13,1.13,0,0,1-.51.88l-20.62,11.91Zm-22.44,6.49c-.28.17-.51,0-.51-.29v-2.2a1.15,1.15,0,0,1,.51-.89l15.81-9.12c.29-.17.52,0,.52.29v2.2a1.08,1.08,0,0,1-.51.88l-15.81,9.13Zm19.64-11.33c-.29.16-.52,0-.52-.3V386a1.1,1.1,0,0,1,.51-.88l17.48-10.09c.28-.17.51,0,.51.29v2.2a1.15,1.15,0,0,1-.51.89l-17.48,10.09Zm22.21-12.82c-.29.16-.52,0-.52-.3v-2.2a1.08,1.08,0,0,1,.51-.88l18.23-10.53c.29-.17.52,0,.52.29v2.2a1.1,1.1,0,0,1-.51.89l-18.23,10.53Zm-41.46,17.47c-.28.16-.51,0-.51-.29v-2.2a1.15,1.15,0,0,1,.51-.89l42.27-24.4c.28-.16.51,0,.51.29v2.2a1.15,1.15,0,0,1-.51.89l-42.27,24.4Zm45.82-26.46c-.28.17-.51,0-.51-.29v-2.2a1.13,1.13,0,0,1,.51-.88l17.48-10.09c.28-.17.51,0,.51.29v2.2a1.13,1.13,0,0,1-.51.88L989.7,366.72Zm22.21-12.82c-.28.17-.51,0-.51-.29v-2.2a1.11,1.11,0,0,1,.51-.88L1030.14,340c.28-.17.51,0,.51.29v2.2a1.13,1.13,0,0,1-.51.88l-18.24,10.53Zm-68,32.83c-.28.16-.51,0-.51-.29v-2.2a1.15,1.15,0,0,1,.51-.89l27.06-15.62c.29-.16.52,0,.52.29v2.2a1.13,1.13,0,0,1-.52.89l-27.06,15.62ZM974.59,369c-.28.16-.51,0-.51-.29v-2.2a1.15,1.15,0,0,1,.51-.89l24.83-14.33c.29-.17.52,0,.52.29v2.2a1.1,1.1,0,0,1-.51.88L974.59,369Zm-38.82,16c-.29.16-.52,0-.52-.3v-2.2a1.08,1.08,0,0,1,.51-.88l24.11-13.92c.29-.17.52,0,.52.29v2.2a1.1,1.1,0,0,1-.51.88L935.77,385Zm27.74-16c-.29.16-.52,0-.52-.29v-2.2a1.12,1.12,0,0,1,.51-.89l42.26-24.4c.29-.16.52,0,.52.29v2.2a1.12,1.12,0,0,1-.51.89l-42.26,24.4ZM1009,342.65c-.28.16-.51,0-.51-.3v-2.19a1.13,1.13,0,0,1,.51-.89l28-16.14c.29-.16.52,0,.52.29v2.2a1.12,1.12,0,0,1-.51.89l-28,16.14Zm-78.35,38.77c-.28.17-.51,0-.51-.29v-2.2a1.13,1.13,0,0,1,.51-.88L961,360.54c.28-.16.51,0,.51.3V363a1.13,1.13,0,0,1-.51.88l-30.32,17.5Zm13.12-16.51c-.28.16-.51,0-.51-.29v-2.2a1.15,1.15,0,0,1,.51-.89l9.21-5.31c.28-.17.51,0,.51.29v2.2a1.13,1.13,0,0,1-.51.88l-9.21,5.32Zm13.3-7.67c-.29.16-.52,0-.52-.3v-2.2a1.11,1.11,0,0,1,.52-.88l18.51-10.69c.28-.17.51,0,.52.29v2.2a1.16,1.16,0,0,1-.51.89L957.1,357.24Zm23.08-13.34c-.28.17-.51,0-.51-.29v-2.2a1.11,1.11,0,0,1,.52-.88L1008.77,324c.29-.16.52,0,.52.3v2.2a1.13,1.13,0,0,1-.51.88l-28.6,16.51ZM935.7,363.13c-.28.16-.51,0-.51-.3v-2.2a1.13,1.13,0,0,1,.51-.88l26.72-15.43c.28-.16.51,0,.51.3v2.2a1.13,1.13,0,0,1-.51.88L935.7,363.13Zm30.09-17.38c-.28.17-.51,0-.51-.29v-2.2a1.16,1.16,0,0,1,.51-.89l20.63-11.9c.28-.16.51,0,.51.29V333a1.15,1.15,0,0,1-.51.89l-20.63,11.9Zm-30.1,10.93c-.29.16-.52,0-.52-.3v-2.19a1.08,1.08,0,0,1,.51-.89l16.64-9.61c.28-.16.51,0,.51.3v2.19a1.13,1.13,0,0,1-.51.89l-16.64,9.61Zm20.44-11.81c-.28.16-.51,0-.51-.29v-2.2a1.13,1.13,0,0,1,.52-.89l42.26-24.4a.32.32,0,0,1,.52.29v2.2a1.13,1.13,0,0,1-.51.89l-42.27,24.4Zm45.66-26.36c-.28.16-.51,0-.51-.29V316a1.15,1.15,0,0,1,.51-.89l15.81-9.12c.29-.17.52,0,.52.29v2.2a1.1,1.1,0,0,1-.51.88l-15.81,9.13Zm-58,27.06c-.28.16-.51,0-.51-.3v-2.2a1.13,1.13,0,0,1,.51-.88L986,317.79c.28-.17.51,0,.52.29v2.2a1.13,1.13,0,0,1-.51.88l-42.27,24.41Zm45.83-26.46c-.28.16-.52,0-.52-.29v-2.2a1.15,1.15,0,0,1,.51-.89L1007,305.64c.28-.16.51,0,.51.29v2.2a1.15,1.15,0,0,1-.51.89l-17.48,10.09Zm22.21-12.82c-.29.16-.52,0-.52-.3v-2.2a1.1,1.1,0,0,1,.51-.88l42.26-24.4c.29-.17.52,0,.52.29V281a1.09,1.09,0,0,1-.51.88l-42.26,24.41Zm-68,32.83c-.29.16-.52,0-.52-.3v-2.2a1.08,1.08,0,0,1,.51-.88l27.06-15.62c.28-.17.51,0,.51.29v2.2a1.13,1.13,0,0,1-.51.88l-27.06,15.63Zm30.73-17.75c-.29.17-.52,0-.52-.29v-2.2a1.1,1.1,0,0,1,.51-.88l24.83-14.34c.28-.16.51,0,.51.29v2.2a1.13,1.13,0,0,1-.51.89l-24.83,14.33Zm29.37-16.95c-.29.16-.52,0-.52-.29v-2.2a1.13,1.13,0,0,1,.52-.89l42.26-24.4c.28-.16.51,0,.51.29v2.2a1.15,1.15,0,0,1-.51.89l-42.26,24.4Zm46.45-26.82c-.28.16-.51,0-.51-.3v-2.2a1.13,1.13,0,0,1,.51-.88l28-16.14c.28-.16.51,0,.51.29v2.2a1.15,1.15,0,0,1-.51.89l-28,16.14ZM935.63,337.33c-.28.17-.51,0-.51-.29v-2.2a1.15,1.15,0,0,1,.51-.89L959.74,320c.28-.16.51,0,.51.29v2.2a1.13,1.13,0,0,1-.51.89l-24.12,13.92Zm27.74-16c-.28.16-.51,0-.51-.3v-2.2a1.13,1.13,0,0,1,.51-.88l42.27-24.4c.28-.17.51,0,.51.29V296a1.16,1.16,0,0,1-.51.89l-42.27,24.4ZM1008.89,295c-.28.17-.51,0-.51-.29v-2.2a1.11,1.11,0,0,1,.52-.88l27.95-16.14c.28-.17.51,0,.51.29V278a1.16,1.16,0,0,1-.51.89l-28,16.13Zm-78.34,38.78c-.29.16-.52,0-.52-.29v-2.21a1.13,1.13,0,0,1,.51-.88L972.8,306c.29-.17.52,0,.52.29v2.2a1.12,1.12,0,0,1-.51.89l-42.26,24.4Zm160-105.28-166.45,96.1.36,127.59-11.32,6.53-.36-127.58.36,127.58,177.77-102.64-.36-127.58Z"/><path class="cls-52" d="M1084.38,226.35a3.54,3.54,0,0,0-1.6,2.79c0,1,.72,1.44,1.61.92a3.49,3.49,0,0,0,1.61-2.78c0-1-.73-1.44-1.62-.93Z"/><path class="cls-53" d="M1079.38,229.24a3.58,3.58,0,0,0-1.61,2.79c0,1,.73,1.44,1.62.92a3.55,3.55,0,0,0,1.61-2.78c0-1-.73-1.44-1.62-.93Z"/><path class="cls-54" d="M1074.37,232.14a3.55,3.55,0,0,0-1.61,2.78c0,1,.73,1.44,1.62.92a3.55,3.55,0,0,0,1.61-2.78c0-1-.73-1.44-1.62-.92Z"/><path class="cls-55" d="M916.66,380.81c-.87.5-1.58.09-1.58-.91V377a3.47,3.47,0,0,1,1.58-2.74l3.86-2.23c.87-.5,1.58-.09,1.59.91v2.92a3.53,3.53,0,0,1-1.58,2.74l-3.87,2.23Zm0-9c-.87.5-1.59.09-1.59-.91V368a3.53,3.53,0,0,1,1.58-2.74l3.86-2.23c.87-.5,1.59-.09,1.59.91v2.92a3.53,3.53,0,0,1-1.58,2.74l-3.86,2.23Zm0-9c-.87.51-1.58.1-1.59-.9V359a3.47,3.47,0,0,1,1.58-2.74l3.86-2.23c.87-.5,1.58-.09,1.59.91v2.92a3.44,3.44,0,0,1-1.58,2.73l-3.86,2.23Zm0-9c-.87.51-1.59.1-1.59-.9V350a3.51,3.51,0,0,1,1.58-2.74l3.86-2.23c.87-.5,1.59-.09,1.59.91v2.92a3.53,3.53,0,0,1-1.58,2.74l-3.86,2.22Zm0-9c-.87.51-1.58.1-1.59-.9V341a3.49,3.49,0,0,1,1.58-2.73l3.87-2.23c.87-.5,1.58-.09,1.59.91v2.92a3.44,3.44,0,0,1-1.58,2.73l-3.86,2.23Zm7.55-20.21-11.32,6.54.36,127.58,11.32-6.53-.36-127.59Z"/><path class="cls-56" d="M920.41,336.05l-3.87,2.23A3.49,3.49,0,0,0,915,341v2.93c0,1,.72,1.41,1.59.9l3.86-2.23a3.44,3.44,0,0,0,1.58-2.73V337c0-1-.72-1.41-1.59-.91Z"/><path class="cls-56" d="M920.43,345l-3.86,2.23A3.51,3.51,0,0,0,915,350v2.92c0,1,.72,1.41,1.59.9l3.86-2.22a3.53,3.53,0,0,0,1.58-2.74V346c0-1-.72-1.41-1.59-.91Z"/><path class="cls-56" d="M920.46,354l-3.86,2.23A3.47,3.47,0,0,0,915,359v2.92c0,1,.72,1.41,1.59.9l3.86-2.23a3.44,3.44,0,0,0,1.58-2.73v-2.92c0-1-.72-1.41-1.59-.91Z"/><path class="cls-56" d="M920.48,363l-3.86,2.23A3.53,3.53,0,0,0,915,368v2.92c0,1,.72,1.41,1.59.91l3.86-2.23a3.53,3.53,0,0,0,1.58-2.74v-2.92c0-1-.72-1.41-1.59-.91Z"/><path class="cls-56" d="M920.51,372l-3.86,2.23a3.47,3.47,0,0,0-1.58,2.74v2.92c0,1,.71,1.41,1.58.91l3.87-2.23a3.53,3.53,0,0,0,1.58-2.74v-2.92c0-1-.72-1.41-1.59-.91Z"/><path class="cls-57" d="M972.8,306l-42.26,24.4a1.13,1.13,0,0,0-.51.88v2.21c0,.32.23.45.52.29l42.26-24.4a1.12,1.12,0,0,0,.51-.89v-2.2c0-.32-.23-.46-.52-.29Z"/><path class="cls-58" d="M959.74,320,935.62,334a1.15,1.15,0,0,0-.51.89V337c0,.32.23.46.51.29l24.12-13.92a1.13,1.13,0,0,0,.51-.89v-2.2c0-.32-.23-.45-.51-.29Z"/><path class="cls-3" d="M970.78,320.12l-27.06,15.62a1.08,1.08,0,0,0-.51.88v2.2c0,.33.23.46.52.3l27.06-15.63a1.13,1.13,0,0,0,.51-.88v-2.2c0-.33-.23-.46-.51-.29Z"/><path class="cls-59" d="M986,317.79l-42.27,24.4a1.13,1.13,0,0,0-.51.88v2.2c0,.33.23.46.51.3L986,321.16a1.13,1.13,0,0,0,.51-.88v-2.2c0-.33-.24-.46-.52-.29Z"/><path class="cls-58" d="M952.32,343.69l-16.64,9.61a1.08,1.08,0,0,0-.51.89v2.19c0,.33.23.46.52.3l16.64-9.61a1.13,1.13,0,0,0,.51-.89V344c0-.33-.23-.46-.51-.3Z"/><path class="cls-3" d="M962.41,344.32l-26.72,15.43a1.13,1.13,0,0,0-.51.88v2.2c0,.33.23.46.51.3l26.72-15.43a1.13,1.13,0,0,0,.51-.88v-2.2c0-.33-.23-.46-.51-.3Z"/><path class="cls-3" d="M953,356.22l-9.21,5.31a1.15,1.15,0,0,0-.51.89v2.2c0,.32.23.45.51.29l9.21-5.32a1.13,1.13,0,0,0,.51-.88v-2.2c0-.33-.23-.46-.51-.29Z"/><path class="cls-60" d="M1005.63,293.54l-42.27,24.4a1.13,1.13,0,0,0-.51.88V321c0,.33.23.46.51.3l42.27-24.4a1.16,1.16,0,0,0,.51-.89v-2.2c0-.33-.23-.46-.51-.29Z"/><path class="cls-57" d="M999.28,303.66,974.45,318a1.1,1.1,0,0,0-.51.88v2.2c0,.33.23.46.52.29L999.29,307a1.13,1.13,0,0,0,.51-.89V304c0-.32-.23-.45-.51-.29Z"/><path class="cls-58" d="M1007,305.64l-17.48,10.09a1.15,1.15,0,0,0-.51.89v2.2c0,.32.24.45.52.29L1007.05,309a1.15,1.15,0,0,0,.51-.89v-2.2c0-.32-.23-.45-.51-.29Z"/><path class="cls-57" d="M998.39,317.09l-42.26,24.4a1.13,1.13,0,0,0-.52.89v2.2c0,.32.23.45.51.29l42.27-24.4a1.13,1.13,0,0,0,.51-.89v-2.2a.32.32,0,0,0-.52-.29Z"/><path class="cls-60" d="M986.41,330.47l-20.63,11.9a1.16,1.16,0,0,0-.51.89v2.2c0,.32.23.46.51.29l20.63-11.9a1.15,1.15,0,0,0,.51-.89v-2.2c0-.32-.23-.45-.51-.29Z"/><path class="cls-3" d="M975.6,343.17l-18.51,10.69a1.11,1.11,0,0,0-.52.88v2.2c0,.33.23.46.52.3l18.51-10.69a1.16,1.16,0,0,0,.51-.89v-2.2c0-.32-.24-.46-.52-.29Z"/><path class="cls-59" d="M1036.84,275.52l-27.95,16.14a1.11,1.11,0,0,0-.52.88v2.2c0,.33.23.46.51.29l28-16.13a1.16,1.16,0,0,0,.51-.89v-2.2c0-.32-.23-.46-.51-.29Z"/><path class="cls-59" d="M1078.23,258.08l-28,16.14a1.13,1.13,0,0,0-.51.88v2.2c0,.33.23.46.51.3l28-16.14a1.15,1.15,0,0,0,.51-.89v-2.2c0-.32-.23-.45-.51-.29Z"/><path class="cls-58" d="M1046.08,276.64,1003.82,301a1.13,1.13,0,0,0-.52.89v2.2c0,.32.23.45.52.29l42.26-24.4a1.15,1.15,0,0,0,.51-.89v-2.2c0-.32-.23-.45-.51-.29Z"/><path class="cls-57" d="M1054,278.51l-42.26,24.4a1.1,1.1,0,0,0-.51.88V306c0,.33.23.46.52.3L1054,281.88a1.09,1.09,0,0,0,.51-.88v-2.2c0-.33-.23-.46-.52-.29Z"/><path class="cls-3" d="M1017.59,306l-15.81,9.12a1.15,1.15,0,0,0-.51.89v2.2c0,.32.23.45.51.29l15.81-9.13a1.1,1.1,0,0,0,.51-.88v-2.2c0-.33-.23-.46-.52-.29Z"/><path class="cls-60" d="M1008.77,324l-28.59,16.52a1.11,1.11,0,0,0-.52.88v2.2c0,.33.23.46.51.29l28.6-16.51a1.13,1.13,0,0,0,.51-.88v-2.2c0-.33-.23-.46-.52-.3Z"/><path class="cls-59" d="M961,360.54l-30.32,17.51a1.13,1.13,0,0,0-.51.88v2.2c0,.33.23.46.51.29L961,363.92a1.13,1.13,0,0,0,.51-.88v-2.2c0-.33-.23-.46-.51-.3Z"/><path class="cls-3" d="M959.87,367.65l-24.11,13.92a1.08,1.08,0,0,0-.51.88v2.2c0,.33.23.46.52.3L959.88,371a1.1,1.1,0,0,0,.51-.88v-2.2c0-.33-.23-.46-.52-.29Z"/><path class="cls-58" d="M970.91,367.73l-27.06,15.62a1.15,1.15,0,0,0-.51.89v2.2c0,.32.23.45.51.29l27.06-15.62a1.13,1.13,0,0,0,.52-.89V368c0-.32-.23-.45-.52-.29Z"/><path class="cls-3" d="M986.14,365.4l-42.27,24.4a1.15,1.15,0,0,0-.51.89v2.2c0,.32.23.45.51.29l42.27-24.4a1.15,1.15,0,0,0,.51-.89v-2.2c0-.32-.23-.45-.51-.29Z"/><path class="cls-3" d="M1006.38,381.19l-16.64,9.61a1.13,1.13,0,0,0-.51.88v2.2c0,.33.23.46.51.3l16.64-9.61a1.12,1.12,0,0,0,.51-.89v-2.2c0-.32-.23-.45-.52-.29Z"/><path class="cls-60" d="M962.55,391.94l-26.72,15.42a1.15,1.15,0,0,0-.51.89v2.2c0,.32.24.46.52.29l26.71-15.42a1.13,1.13,0,0,0,.52-.89v-2.2c0-.32-.23-.45-.51-.29Z"/><path class="cls-3" d="M953.13,403.83l-9.21,5.32a1.13,1.13,0,0,0-.51.88v2.2c0,.33.23.46.51.29l9.21-5.31a1.12,1.12,0,0,0,.51-.89v-2.2c0-.32-.23-.45-.52-.29Z"/><path class="cls-60" d="M1005.76,341.15l-42.26,24.4a1.12,1.12,0,0,0-.51.89v2.2c0,.32.23.45.52.29l42.26-24.4a1.12,1.12,0,0,0,.51-.89v-2.2c0-.32-.23-.45-.52-.29Z"/><path class="cls-57" d="M999.41,351.28l-24.83,14.33a1.15,1.15,0,0,0-.51.89v2.2c0,.32.23.45.51.29l24.83-14.34a1.1,1.1,0,0,0,.51-.88v-2.2c0-.33-.23-.46-.52-.29Z"/><path class="cls-3" d="M1007.17,353.26l-17.48,10.09a1.13,1.13,0,0,0-.51.88v2.2c0,.33.23.46.51.29l17.48-10.09a1.13,1.13,0,0,0,.51-.88v-2.2c0-.33-.23-.46-.51-.29Z"/><path class="cls-57" d="M1052.46,354.59,1010.19,379a1.13,1.13,0,0,0-.51.89v2.2c0,.32.23.45.51.29l42.27-24.4a1.15,1.15,0,0,0,.51-.89v-2.2c0-.32-.23-.46-.51-.29Z"/><path class="cls-59" d="M986.54,378.08,965.92,390a1.13,1.13,0,0,0-.51.88v2.21c0,.32.23.45.51.29l20.62-11.91a1.13,1.13,0,0,0,.51-.88v-2.2c0-.33-.24-.46-.52-.3Z"/><path class="cls-57" d="M961.86,406.89l-26.71,15.43a1.12,1.12,0,0,0-.52.89v2.19c0,.33.23.46.52.3l26.71-15.43a1.13,1.13,0,0,0,.51-.88v-2.2c0-.33-.23-.46-.51-.3Z"/><path class="cls-58" d="M985.86,393,965.24,405a1.08,1.08,0,0,0-.51.88V408c0,.33.23.46.52.29l20.62-11.9a1.13,1.13,0,0,0,.51-.89v-2.19c0-.33-.23-.46-.51-.3Z"/><path class="cls-59" d="M975.74,390.78l-18.52,10.69a1.15,1.15,0,0,0-.51.89v2.2c0,.32.23.45.51.29l18.52-10.69a1.13,1.13,0,0,0,.51-.89v-2.2c0-.32-.23-.45-.51-.29Z"/><path class="cls-59" d="M1037,323.13l-28,16.14a1.13,1.13,0,0,0-.51.89v2.19c0,.33.23.46.51.3l28-16.14a1.12,1.12,0,0,0,.51-.89v-2.2c0-.32-.23-.45-.52-.29Z"/><path class="cls-3" d="M1030.14,340l-18.24,10.53a1.11,1.11,0,0,0-.51.88v2.2c0,.32.23.46.51.29l18.24-10.53a1.13,1.13,0,0,0,.51-.88v-2.2c0-.33-.23-.46-.51-.29Z"/><path class="cls-57" d="M980.6,375.06l-17.48,10.09a1.1,1.1,0,0,0-.51.88v2.2c0,.33.23.46.52.3l17.48-10.09a1.15,1.15,0,0,0,.51-.89v-2.2c0-.32-.23-.46-.51-.29Z"/><path class="cls-58" d="M1003.56,361.8l-18.23,10.53a1.08,1.08,0,0,0-.51.88v2.2c0,.33.23.46.52.3l18.23-10.53a1.1,1.1,0,0,0,.51-.89v-2.2c0-.32-.23-.46-.52-.29Z"/><path class="cls-60" d="M959.29,387.36l-15.81,9.12a1.15,1.15,0,0,0-.51.89v2.2c0,.32.23.46.51.29l15.81-9.13a1.08,1.08,0,0,0,.51-.88v-2.2c0-.33-.23-.46-.52-.29Z"/><path class="cls-57" d="M1008.91,371.63l-28.6,16.51a1.13,1.13,0,0,0-.51.89v2.19c0,.33.23.46.51.3l28.6-16.51a1.15,1.15,0,0,0,.51-.89v-2.2c0-.32-.23-.45-.51-.29Z"/><path class="cls-61" d="M1027.22,549.37l38.15,22a4.49,4.49,0,0,0,4,0l98.44-56.84a1.22,1.22,0,0,0,0-2.31l-38.15-22a4.41,4.41,0,0,0-4,0l-80.83,46.67-17.61,10.16A1.22,1.22,0,0,0,1027.22,549.37Z"/><polygon class="cls-61" points="1168.64 513.42 1168.63 512.05 1167.78 511.44 1167.42 512.99 1167.42 513.96 1168.64 513.42"/><polygon class="cls-62" points="1026.4 548.17 1026.4 546.82 1029.02 548.31 1029.85 550.05 1026.4 548.17"/><path class="cls-62" d="M1027.22,549.37l38.15,22a4.08,4.08,0,0,0,2,.47v-8.63l-22.52-26.34h0l-17.61,10.16A1.22,1.22,0,0,0,1027.22,549.37Z"/><path class="cls-63" d="M1069.37,570l98.44-56.83a1.22,1.22,0,0,0,0-2.31l-38.15-22a4.47,4.47,0,0,0-4,0l-98.44,56.84a1.22,1.22,0,0,0,0,2.31l38.15,22A4.41,4.41,0,0,0,1069.37,570Z"/><path class="cls-64" d="M1128,503.38l5-2.88a.34.34,0,0,0,0-.65l-4.62-2.67a1.25,1.25,0,0,0-1.13,0l-5,2.88a.35.35,0,0,0,0,.65l4.63,2.67A1.29,1.29,0,0,0,1128,503.38Z"/><path class="cls-64" d="M1121,507.42l5-2.88a.34.34,0,0,0,0-.65l-4.62-2.67a1.23,1.23,0,0,0-1.12,0l-5,2.88a.34.34,0,0,0,0,.65l4.62,2.67A1.25,1.25,0,0,0,1121,507.42Z"/><path class="cls-64" d="M1114,511.46l5-2.88a.34.34,0,0,0,0-.64l-4.62-2.67a1.25,1.25,0,0,0-1.13,0l-5,2.88a.34.34,0,0,0,0,.64l4.62,2.67A1.23,1.23,0,0,0,1114,511.46Z"/><path class="cls-64" d="M1107,515.51l5-2.88a.35.35,0,0,0,0-.65l-4.63-2.67a1.23,1.23,0,0,0-1.12,0l-5,2.88a.34.34,0,0,0,0,.65l4.63,2.67A1.23,1.23,0,0,0,1107,515.51Z"/><path class="cls-64" d="M1100,519.55l5-2.88a.34.34,0,0,0,0-.65l-4.62-2.67a1.29,1.29,0,0,0-1.12,0l-5,2.89c-.31.17-.31.46,0,.64l4.62,2.67A1.23,1.23,0,0,0,1100,519.55Z"/><path class="cls-64" d="M1093.06,523.56l5-2.88a.34.34,0,0,0,0-.65l-4.63-2.67a1.23,1.23,0,0,0-1.12,0l-5,2.88a.34.34,0,0,0,0,.65l4.63,2.67A1.29,1.29,0,0,0,1093.06,523.56Z"/><path class="cls-64" d="M1086.09,527.58l5-2.88a.34.34,0,0,0,0-.65l-4.63-2.67a1.23,1.23,0,0,0-1.12,0l-5,2.88a.34.34,0,0,0,0,.65l4.63,2.67A1.23,1.23,0,0,0,1086.09,527.58Z"/><path class="cls-64" d="M1079.05,531.64l5-2.88a.34.34,0,0,0,0-.64l-4.63-2.67a1.23,1.23,0,0,0-1.12,0l-5,2.88a.34.34,0,0,0,0,.64l4.63,2.67A1.23,1.23,0,0,0,1079.05,531.64Z"/><path class="cls-64" d="M1072.08,535.67l5-2.88a.34.34,0,0,0,0-.65l-4.63-2.67a1.23,1.23,0,0,0-1.12,0l-5,2.88a.35.35,0,0,0,0,.65l4.63,2.67A1.23,1.23,0,0,0,1072.08,535.67Z"/><path class="cls-64" d="M1065.07,539.71l5-2.88a.34.34,0,0,0,0-.65l-4.62-2.67a1.29,1.29,0,0,0-1.12,0l-5,2.88a.34.34,0,0,0,0,.65l4.62,2.67A1.23,1.23,0,0,0,1065.07,539.71Z"/><path class="cls-64" d="M1058.07,543.76l5-2.88a.34.34,0,0,0,0-.65l-4.63-2.67a1.23,1.23,0,0,0-1.12,0l-5,2.88a.35.35,0,0,0,0,.65l4.63,2.67A1.29,1.29,0,0,0,1058.07,543.76Z"/><path class="cls-64" d="M1051.1,547.78l5-2.88a.34.34,0,0,0,0-.65l-4.62-2.67a1.25,1.25,0,0,0-1.13,0l-5,2.88a.34.34,0,0,0,0,.65l4.62,2.67A1.23,1.23,0,0,0,1051.1,547.78Z"/><path class="cls-64" d="M1135,499.33l5-2.88a.34.34,0,0,0,0-.65l-4.62-2.67a1.29,1.29,0,0,0-1.12,0l-5,2.88a.34.34,0,0,0,0,.65l4.62,2.67A1.23,1.23,0,0,0,1135,499.33Z"/><path class="cls-64" d="M1110.73,505.52l5-2.88a.34.34,0,0,0,0-.65l-4.62-2.67a1.23,1.23,0,0,0-1.12,0l-5,2.88a.34.34,0,0,0,0,.65l4.62,2.67A1.29,1.29,0,0,0,1110.73,505.52Z"/><path class="cls-64" d="M1103.73,509.56l5-2.88a.34.34,0,0,0,0-.65l-4.63-2.67a1.23,1.23,0,0,0-1.12,0l-5,2.88a.35.35,0,0,0,0,.65l4.63,2.67A1.23,1.23,0,0,0,1103.73,509.56Z"/><path class="cls-64" d="M1096.72,513.6l5-2.88a.34.34,0,0,0,0-.64l-4.62-2.67a1.23,1.23,0,0,0-1.12,0l-5,2.88c-.31.18-.31.47,0,.64l4.62,2.67A1.23,1.23,0,0,0,1096.72,513.6Z"/><path class="cls-64" d="M1089.72,517.65l5-2.88a.34.34,0,0,0,0-.65l-4.63-2.67a1.23,1.23,0,0,0-1.12,0l-5,2.88a.35.35,0,0,0,0,.65l4.63,2.67A1.23,1.23,0,0,0,1089.72,517.65Z"/><path class="cls-64" d="M1082.72,521.69l5-2.88a.34.34,0,0,0,0-.65l-4.62-2.67a1.29,1.29,0,0,0-1.12,0l-5,2.89c-.31.17-.31.46,0,.64l4.62,2.67A1.25,1.25,0,0,0,1082.72,521.69Z"/><path class="cls-64" d="M1075.78,525.7l5-2.88a.34.34,0,0,0,0-.65l-4.62-2.67a1.25,1.25,0,0,0-1.13,0l-5,2.88a.34.34,0,0,0,0,.65l4.62,2.67A1.29,1.29,0,0,0,1075.78,525.7Z"/><path class="cls-64" d="M1068.81,529.72l5-2.88a.34.34,0,0,0,0-.65l-4.62-2.67a1.23,1.23,0,0,0-1.12,0l-5,2.88a.34.34,0,0,0,0,.65l4.62,2.67A1.23,1.23,0,0,0,1068.81,529.72Z"/><path class="cls-64" d="M1061.77,533.78l5-2.88a.34.34,0,0,0,0-.64l-4.62-2.67a1.23,1.23,0,0,0-1.12,0l-5,2.88a.34.34,0,0,0,0,.64l4.62,2.67A1.23,1.23,0,0,0,1061.77,533.78Z"/><path class="cls-64" d="M1054.8,537.81l5-2.88a.34.34,0,0,0,0-.65l-4.62-2.67a1.23,1.23,0,0,0-1.12,0l-5,2.88a.34.34,0,0,0,0,.65l4.62,2.67A1.23,1.23,0,0,0,1054.8,537.81Z"/><path class="cls-64" d="M1047.8,541.85l5-2.88a.34.34,0,0,0,0-.65l-4.63-2.67a1.29,1.29,0,0,0-1.12,0l-5,2.88a.34.34,0,0,0,0,.65l4.63,2.67A1.23,1.23,0,0,0,1047.8,541.85Z"/><path class="cls-64" d="M1040.79,545.9l5-2.88a.34.34,0,0,0,0-.65l-4.62-2.67a1.23,1.23,0,0,0-1.12,0l-5,2.88a.34.34,0,0,0,0,.65l4.62,2.67A1.29,1.29,0,0,0,1040.79,545.9Z"/><path class="cls-64" d="M1033.82,549.92l5-2.88a.34.34,0,0,0,0-.65l-4.62-2.67a1.23,1.23,0,0,0-1.12,0l-5,2.88a.34.34,0,0,0,0,.65l4.62,2.67A1.23,1.23,0,0,0,1033.82,549.92Z"/><path class="cls-64" d="M1040.49,553.9l8.7-5a.27.27,0,0,0,0-.51l-4.86-2.8a.92.92,0,0,0-.88,0l-8.7,5c-.25.14-.25.37,0,.51l4.86,2.8A.92.92,0,0,0,1040.49,553.9Z"/><path class="cls-64" d="M1117.74,501.47l5-2.88a.34.34,0,0,0,0-.65l-4.63-2.67a1.29,1.29,0,0,0-1.12,0l-5,2.88a.34.34,0,0,0,0,.65l4.63,2.67A1.23,1.23,0,0,0,1117.74,501.47Z"/><path class="cls-64" d="M1124.7,497.45l8.52-4.91a.35.35,0,0,0,0-.66l-4.62-2.66a1.25,1.25,0,0,0-1.13,0l-8.52,4.92a.34.34,0,0,0,0,.65l4.62,2.66A1.25,1.25,0,0,0,1124.7,497.45Z"/><path class="cls-64" d="M1124.25,513.35l5-2.88a.34.34,0,0,0,0-.65l-4.63-2.67a1.29,1.29,0,0,0-1.12,0l-5,2.88a.35.35,0,0,0,0,.65l4.63,2.67A1.23,1.23,0,0,0,1124.25,513.35Z"/><path class="cls-64" d="M1117.24,517.4l5-2.88a.34.34,0,0,0,0-.65l-4.62-2.67a1.23,1.23,0,0,0-1.12,0l-5,2.88a.34.34,0,0,0,0,.65l4.62,2.67A1.29,1.29,0,0,0,1117.24,517.4Z"/><path class="cls-64" d="M1110.24,521.44l5-2.88a.34.34,0,0,0,0-.65l-4.62-2.67a1.25,1.25,0,0,0-1.13,0l-5,2.88a.35.35,0,0,0,0,.65l4.63,2.67A1.23,1.23,0,0,0,1110.24,521.44Z"/><path class="cls-64" d="M1103.24,525.48l5-2.88a.34.34,0,0,0,0-.64l-4.62-2.67a1.23,1.23,0,0,0-1.12,0l-5,2.88a.34.34,0,0,0,0,.64l4.62,2.67A1.25,1.25,0,0,0,1103.24,525.48Z"/><path class="cls-64" d="M1096.23,529.53l5-2.88a.34.34,0,0,0,0-.65l-4.62-2.67a1.25,1.25,0,0,0-1.13,0l-5,2.88a.34.34,0,0,0,0,.65l4.62,2.67A1.23,1.23,0,0,0,1096.23,529.53Z"/><path class="cls-64" d="M1089.3,533.53l5-2.88a.35.35,0,0,0,0-.65l-4.63-2.67a1.29,1.29,0,0,0-1.12,0l-5,2.88a.34.34,0,0,0,0,.65l4.63,2.67A1.23,1.23,0,0,0,1089.3,533.53Z"/><path class="cls-64" d="M1082.33,537.56l5-2.89c.31-.17.31-.46,0-.64l-4.63-2.67a1.23,1.23,0,0,0-1.12,0l-5,2.88a.34.34,0,0,0,0,.65l4.63,2.67A1.29,1.29,0,0,0,1082.33,537.56Z"/><path class="cls-64" d="M1075.29,541.62l5-2.88a.34.34,0,0,0,0-.65l-4.63-2.67a1.23,1.23,0,0,0-1.12,0l-5,2.88a.34.34,0,0,0,0,.65l4.63,2.67A1.23,1.23,0,0,0,1075.29,541.62Z"/><path class="cls-64" d="M1068.32,545.64l5-2.88c.31-.18.31-.47,0-.64l-4.63-2.67a1.23,1.23,0,0,0-1.12,0l-5,2.88a.34.34,0,0,0,0,.64l4.63,2.67A1.23,1.23,0,0,0,1068.32,545.64Z"/><path class="cls-64" d="M1061.31,549.69l5-2.88a.34.34,0,0,0,0-.65l-4.62-2.67a1.23,1.23,0,0,0-1.12,0l-5,2.88a.34.34,0,0,0,0,.65l4.62,2.67A1.23,1.23,0,0,0,1061.31,549.69Z"/><path class="cls-64" d="M1054.31,553.73l5-2.88a.34.34,0,0,0,0-.65l-4.63-2.67a1.29,1.29,0,0,0-1.12,0l-5,2.88a.35.35,0,0,0,0,.65l4.63,2.67A1.23,1.23,0,0,0,1054.31,553.73Z"/><path class="cls-64" d="M1047.34,557.76l5-2.89c.31-.17.31-.46,0-.64l-4.63-2.67a1.23,1.23,0,0,0-1.12,0l-5,2.88a.35.35,0,0,0,0,.65l4.63,2.67A1.29,1.29,0,0,0,1047.34,557.76Z"/><path class="cls-64" d="M1131.25,509.31l5-2.88a.34.34,0,0,0,0-.65l-4.62-2.67a1.23,1.23,0,0,0-1.12,0l-5,2.88a.34.34,0,0,0,0,.65l4.62,2.67A1.23,1.23,0,0,0,1131.25,509.31Z"/><path class="cls-64" d="M1129.34,518.28l5-2.88a.35.35,0,0,0,0-.65l-4.63-2.67a1.23,1.23,0,0,0-1.12,0l-5,2.88a.34.34,0,0,0,0,.65l4.63,2.67A1.23,1.23,0,0,0,1129.34,518.28Z"/><path class="cls-64" d="M1122.33,522.32l5-2.88c.31-.18.31-.47,0-.64l-4.62-2.67a1.23,1.23,0,0,0-1.12,0l-5,2.88a.34.34,0,0,0,0,.64l4.62,2.67A1.23,1.23,0,0,0,1122.33,522.32Z"/><path class="cls-64" d="M1115.33,526.37l5-2.88a.35.35,0,0,0,0-.65l-4.63-2.67a1.23,1.23,0,0,0-1.12,0l-5,2.88a.34.34,0,0,0,0,.65l4.63,2.67A1.23,1.23,0,0,0,1115.33,526.37Z"/><path class="cls-64" d="M1108.32,530.41l5-2.88a.34.34,0,0,0,0-.65l-4.62-2.67a1.29,1.29,0,0,0-1.12,0l-5,2.88a.34.34,0,0,0,0,.65l4.62,2.67A1.23,1.23,0,0,0,1108.32,530.41Z"/><path class="cls-64" d="M1101.32,534.46l5-2.88a.34.34,0,0,0,0-.65l-4.63-2.67a1.23,1.23,0,0,0-1.12,0l-5,2.88a.34.34,0,0,0,0,.65l4.63,2.67A1.29,1.29,0,0,0,1101.32,534.46Z"/><path class="cls-64" d="M1094.38,538.46l5-2.88a.34.34,0,0,0,0-.65l-4.62-2.67a1.23,1.23,0,0,0-1.12,0l-5,2.88a.34.34,0,0,0,0,.65l4.62,2.67A1.23,1.23,0,0,0,1094.38,538.46Z"/><path class="cls-64" d="M1087.41,542.48l5-2.88a.34.34,0,0,0,0-.65l-4.62-2.66a1.23,1.23,0,0,0-1.12,0l-5,2.88c-.31.17-.31.46,0,.64l4.62,2.67A1.23,1.23,0,0,0,1087.41,542.48Z"/><path class="cls-64" d="M1080.37,546.55l5-2.88a.34.34,0,0,0,0-.65l-4.62-2.67a1.23,1.23,0,0,0-1.12,0l-5,2.88a.34.34,0,0,0,0,.65l4.62,2.67A1.23,1.23,0,0,0,1080.37,546.55Z"/><path class="cls-64" d="M1073.41,550.57l5-2.88a.34.34,0,0,0,0-.65l-4.62-2.67a1.29,1.29,0,0,0-1.12,0l-5,2.88a.34.34,0,0,0,0,.65l4.62,2.67A1.25,1.25,0,0,0,1073.41,550.57Z"/><path class="cls-64" d="M1066.4,554.61l5-2.88c.31-.17.31-.46,0-.64l-4.62-2.67a1.25,1.25,0,0,0-1.13,0l-5,2.88a.34.34,0,0,0,0,.65l4.62,2.66A1.23,1.23,0,0,0,1066.4,554.61Z"/><path class="cls-64" d="M1136.34,514.23l5-2.88c.31-.17.31-.46,0-.64l-4.62-2.67a1.25,1.25,0,0,0-1.13,0l-5,2.88a.34.34,0,0,0,0,.65l4.62,2.66A1.23,1.23,0,0,0,1136.34,514.23Z"/><path class="cls-64" d="M1132.6,524.26l5-2.88a.35.35,0,0,0,0-.65l-4.63-2.67a1.23,1.23,0,0,0-1.12,0l-5,2.88a.34.34,0,0,0,0,.65l4.63,2.67A1.23,1.23,0,0,0,1132.6,524.26Z"/><path class="cls-64" d="M1125.59,528.3l5-2.88a.34.34,0,0,0,0-.64l-4.62-2.67a1.23,1.23,0,0,0-1.12,0l-5,2.88c-.31.18-.31.47,0,.64l4.62,2.67A1.23,1.23,0,0,0,1125.59,528.3Z"/><path class="cls-64" d="M1118.59,532.35l5-2.88a.34.34,0,0,0,0-.65l-4.63-2.67a1.23,1.23,0,0,0-1.12,0l-5,2.88a.34.34,0,0,0,0,.65l4.63,2.67A1.23,1.23,0,0,0,1118.59,532.35Z"/><path class="cls-64" d="M1104.64,548.22l32.48-18.76a.48.48,0,0,0,0-.91l-4.17-2.41a1.74,1.74,0,0,0-1.57,0l-32.49,18.76a.48.48,0,0,0,0,.91l4.17,2.41A1.76,1.76,0,0,0,1104.64,548.22Z"/><path class="cls-64" d="M1111.58,536.39l5-2.88a.34.34,0,0,0,0-.65L1112,530.2a1.23,1.23,0,0,0-1.12,0l-5,2.88c-.31.17-.31.46,0,.64l4.62,2.67A1.23,1.23,0,0,0,1111.58,536.39Z"/><path class="cls-64" d="M1104.58,540.44l5-2.88a.34.34,0,0,0,0-.65l-4.63-2.67a1.23,1.23,0,0,0-1.12,0l-5,2.88a.35.35,0,0,0,0,.65l4.63,2.67A1.29,1.29,0,0,0,1104.58,540.44Z"/><path class="cls-64" d="M1097.65,544.44l5-2.88a.34.34,0,0,0,0-.65l-4.62-2.67a1.23,1.23,0,0,0-1.12,0l-5,2.88a.34.34,0,0,0,0,.65l4.62,2.67A1.25,1.25,0,0,0,1097.65,544.44Z"/><path class="cls-64" d="M1090.68,548.46l5-2.88a.34.34,0,0,0,0-.64l-4.62-2.67a1.23,1.23,0,0,0-1.12,0l-5,2.88a.34.34,0,0,0,0,.64l4.62,2.67A1.25,1.25,0,0,0,1090.68,548.46Z"/><path class="cls-64" d="M1083.64,552.53l5-2.88a.34.34,0,0,0,0-.65l-4.62-2.67a1.23,1.23,0,0,0-1.12,0l-5,2.88a.34.34,0,0,0,0,.65l4.62,2.67A1.25,1.25,0,0,0,1083.64,552.53Z"/><path class="cls-64" d="M1076.67,556.55l5-2.88a.35.35,0,0,0,0-.65l-4.63-2.67a1.29,1.29,0,0,0-1.12,0l-5,2.89c-.31.17-.31.46,0,.64l4.63,2.67A1.23,1.23,0,0,0,1076.67,556.55Z"/><path class="cls-64" d="M1139.6,520.22l5-2.88a.34.34,0,0,0,0-.65L1140,514a1.23,1.23,0,0,0-1.12,0l-5,2.88a.34.34,0,0,0,0,.65l4.62,2.67A1.29,1.29,0,0,0,1139.6,520.22Z"/><path class="cls-64" d="M1155.09,519.08l5-2.88a.34.34,0,0,0,0-.64l-4.62-2.67a1.23,1.23,0,0,0-1.12,0l-5,2.88c-.31.18-.31.47,0,.64l4.62,2.67A1.23,1.23,0,0,0,1155.09,519.08Z"/><path class="cls-64" d="M1148.09,523.13l5-2.88a.34.34,0,0,0,0-.65l-4.63-2.67a1.23,1.23,0,0,0-1.12,0l-5,2.88a.35.35,0,0,0,0,.65l4.63,2.67A1.23,1.23,0,0,0,1148.09,523.13Z"/><path class="cls-64" d="M1139.44,528.12l6.56-3.79a.39.39,0,0,0,0-.73l-4.48-2.58a1.42,1.42,0,0,0-1.27,0l-6.56,3.79a.39.39,0,0,0,0,.73l4.48,2.58A1.36,1.36,0,0,0,1139.44,528.12Z"/><path class="cls-64" d="M1138.33,505.22l8.44-4.87a.32.32,0,0,0,0-.61l-4.7-2.71a1.21,1.21,0,0,0-1,0l-8.44,4.88a.32.32,0,0,0,0,.6l4.7,2.71A1.14,1.14,0,0,0,1138.33,505.22Z"/><path class="cls-64" d="M1143.35,510.19l10.22-5.9a.33.33,0,0,0,0-.62l-4.68-2.7a1.17,1.17,0,0,0-1.06,0l-10.22,5.9a.33.33,0,0,0,0,.62l4.67,2.7A1.19,1.19,0,0,0,1143.35,510.19Z"/><path class="cls-64" d="M1146.74,516.1l13.65-7.89c.29-.16.29-.43,0-.6l-4.7-2.72a1.19,1.19,0,0,0-1,0L1141,512.78a.32.32,0,0,0,0,.6l4.71,2.72A1.19,1.19,0,0,0,1146.74,516.1Z"/><path class="cls-64" d="M1054.15,561.69l10.22-5.9a.33.33,0,0,0,0-.62l-4.68-2.7a1.17,1.17,0,0,0-1.06,0l-10.22,5.9a.33.33,0,0,0,0,.62l4.68,2.7A1.17,1.17,0,0,0,1054.15,561.69Z"/><path class="cls-64" d="M1061,565.63l13.66-7.89a.32.32,0,0,0,0-.6l-4.71-2.71a1.12,1.12,0,0,0-1,0l-13.66,7.88a.32.32,0,0,0,0,.6l4.71,2.72A1.19,1.19,0,0,0,1061,565.63Z"/><path class="cls-64" d="M1067.73,569.53l5-2.88a.35.35,0,0,0,0-.65l-4.63-2.67a1.23,1.23,0,0,0-1.12,0l-5,2.88a.34.34,0,0,0,0,.65l4.63,2.67A1.29,1.29,0,0,0,1067.73,569.53Z"/><path class="cls-64" d="M1088.71,557.41l5-2.88a.34.34,0,0,0,0-.64l-4.62-2.67a1.23,1.23,0,0,0-1.12,0l-5,2.88a.34.34,0,0,0,0,.64l4.62,2.67A1.25,1.25,0,0,0,1088.71,557.41Z"/><path class="cls-64" d="M1081.7,561.46l5-2.88a.34.34,0,0,0,0-.65l-4.62-2.67a1.25,1.25,0,0,0-1.13,0l-5,2.88a.34.34,0,0,0,0,.65l4.62,2.67A1.23,1.23,0,0,0,1081.7,561.46Z"/><path class="cls-64" d="M1071.62,563.81l5.24-3c.21-.13.21-.33,0-.45l-2-1.14a.85.85,0,0,0-.76,0l-5.24,3a.23.23,0,0,0,0,.44l2,1.14A.87.87,0,0,0,1071.62,563.81Z"/><path class="cls-64" d="M1074.62,565.54l5.24-3a.23.23,0,0,0,0-.44l-2-1.14a.81.81,0,0,0-.77,0l-5.24,3a.23.23,0,0,0,0,.44l2,1.14A.79.79,0,0,0,1074.62,565.54Z"/><path class="cls-64" d="M1095.88,553.27l6.46-3.73a.39.39,0,0,0,0-.73l-4.48-2.59a1.4,1.4,0,0,0-1.26,0l-6.47,3.74a.38.38,0,0,0,0,.72l4.49,2.59A1.4,1.4,0,0,0,1095.88,553.27Z"/><path class="cls-64" d="M1162.1,515l5-2.88a.34.34,0,0,0,0-.65l-4.63-2.67a1.23,1.23,0,0,0-1.12,0l-5,2.88a.35.35,0,0,0,0,.65L1161,515A1.23,1.23,0,0,0,1162.1,515Z"/><path class="cls-65" d="M1144.52,449.54c1.18,2.45,12.36,7.21,14.47,7.9s5.82,4,7.8,5.34c7.38,4.86,12.85,2.33,16.77.83,4.64-1.77,6-4,6-6.29a11,11,0,0,0-.77-3.76c-1.08-3.09-9-13.19-18.73-16.77s-18.24-3.14-23.14,2.16a11.52,11.52,0,0,0-2.54,4.14A9.29,9.29,0,0,0,1144.52,449.54Z"/><path class="cls-66" d="M1146.58,449c1.36.25,5.4-1.17,10.5.7s9,9.85,11.62,12.4,7.62,3,15,0a11.24,11.24,0,0,0,5.82-4.73,11,11,0,0,0-.77-3.76c-.91-2.62-6.75-10.27-14.42-14.72l-.73-.41a27.44,27.44,0,0,0-3.58-1.64c-7.55-2.78-14.39-3.13-19.36-.66h0c-.21.1-.42.21-.62.33h0a12.41,12.41,0,0,0-3.16,2.49,9.41,9.41,0,0,0-2.54,4.14C1143.12,449.07,1146,448.84,1146.58,449Z"/><path class="cls-67" d="M1157.87,448.4l.24.14c4-6.78,8.48-9,11.55-9.63a11.88,11.88,0,0,1,4.72-.07l-.73-.41a12.27,12.27,0,0,0-4,.19,13.64,13.64,0,0,0-3.53,1.3l-.29.16A21.66,21.66,0,0,0,1157.87,448.4Z"/><path class="cls-67" d="M1150.09,436.46a26.9,26.9,0,0,1,15.7,3.62l.19.12.16-.24-.06,0a23.63,23.63,0,0,0-5.5-2.51,28.07,28.07,0,0,0-9.87-1.28h0C1150.5,436.23,1150.29,436.34,1150.09,436.46Z"/><path class="cls-67" d="M1161.36,436.84a10.34,10.34,0,0,0-2.26,1.5,17,17,0,0,0-5.66-1,4.72,4.72,0,0,1,2.24-1.46A13.14,13.14,0,0,1,1161.36,436.84Z"/><rect class="cls-68" x="902.75" y="606.65" width="35.94" height="43"/><path class="cls-68" d="M933.46,657l-.26.15a22.58,22.58,0,0,1-6.56,2.33c-6.29,1.25-13.55.43-18.59-2.48-7-4.07-7.07-10.66-.08-14.72,5-2.93,12.34-3.75,18.67-2.46a22.72,22.72,0,0,1,6.56,2.36l.18.1C940.42,646.35,940.46,652.94,933.46,657Z"/><path class="cls-3" d="M933.38,599.29c-7-4.06-18.42-4.06-25.41,0s-7,10.66.08,14.72,18.42,4.07,25.41,0,7-10.65-.08-14.72Z"/><path class="cls-69" d="M935.63,609.64a10,10,0,0,1-3.73,3.47c-6.13,3.57-16.12,3.57-22.3,0a10.21,10.21,0,0,1-3.8-3.52c-1.88-3.19-.64-6.85,3.73-9.39,6.14-3.57,16.12-3.57,22.3,0C936.25,602.75,937.52,606.44,935.63,609.64Z"/><path class="cls-70" d="M935.63,609.64a10,10,0,0,1-3.73,3.47c-6.13,3.57-16.12,3.57-22.3,0a10.21,10.21,0,0,1-3.8-3.52,10.1,10.1,0,0,1,3.73-3.47c6.14-3.57,16.12-3.57,22.3,0A10.3,10.3,0,0,1,935.63,609.64Z"/><ellipse class="cls-71" cx="921.1" cy="605.63" rx="0.89" ry="0.48"/><ellipse class="cls-71" cx="923.37" cy="605.15" rx="0.89" ry="0.48"/><path class="cls-71" d="M933.27,608.36c0,.41-.6.74-1.35.74s-1.36-.33-1.36-.74.61-.73,1.36-.73S933.27,608,933.27,608.36Z"/><path class="cls-71" d="M926,605.34c0,.16-.24.29-.54.29s-.55-.13-.55-.29.24-.3.55-.3S926,605.17,926,605.34Z"/><ellipse class="cls-71" cx="931.37" cy="610.98" rx="0.55" ry="0.3"/><ellipse class="cls-71" cx="929.98" cy="609.39" rx="0.36" ry="0.2"/><path class="cls-71" d="M931.55,609.89c0,.11-.17.19-.37.19s-.36-.08-.36-.19.16-.2.36-.2S931.55,609.78,931.55,609.89Z"/><path class="cls-71" d="M922.79,606.55c0,.17-.24.3-.54.3s-.55-.13-.55-.3.24-.29.55-.29S922.79,606.39,922.79,606.55Z"/><path class="cls-71" d="M931,607.21c0,.17-.24.3-.54.3s-.55-.13-.55-.3.24-.29.55-.29S931,607.05,931,607.21Z"/><path class="cls-71" d="M925,608.07c0,.16-.24.29-.55.29s-.54-.13-.54-.29.24-.3.54-.3S925,607.91,925,608.07Z"/><ellipse class="cls-71" cx="921.21" cy="604.28" rx="0.89" ry="0.48"/><ellipse class="cls-71" cx="924.57" cy="606.65" rx="1.47" ry="0.79"/><ellipse class="cls-71" cx="928.51" cy="610.68" rx="1.47" ry="0.79"/><ellipse class="cls-71" cx="927.37" cy="606.02" rx="1" ry="0.54"/><path class="cls-71" d="M929.92,608.07c0,.63-.95,1.15-2.13,1.15s-2.13-.52-2.13-1.15,1-1.15,2.13-1.15S929.92,607.43,929.92,608.07Z"/><g class="cls-6"><polygon class="cls-3" points="932.2 648.87 935.44 646.99 941.8 650.67 938.57 652.55 932.2 648.87"/><path class="cls-3" d="M943.58,650.84l-3.23,1.88a1.75,1.75,0,0,1-1.78-.17l3.23-1.88A1.75,1.75,0,0,0,943.58,650.84Z"/><path class="cls-3" d="M946,655l-3.24,1.88c1.07-.62,1.73-1.93,1.73-3.8l3.24-1.88C947.73,653.08,947.07,654.39,946,655Z"/><polygon class="cls-3" points="944.57 630.2 947.8 628.32 947.74 651.21 944.5 653.09 944.57 630.2"/><polygon class="cls-3" points="932.29 616.33 935.53 614.45 941.92 618.13 938.69 620.02 932.29 616.33"/><path class="cls-3" d="M938.69,620l3.23-1.88a12.94,12.94,0,0,1,5.88,10.18l-3.23,1.88A13,13,0,0,0,938.69,620Z"/><path class="cls-69" d="M938.69,620a13,13,0,0,1,5.88,10.18l-.07,22.89c0,3.76-2.68,5.28-5.94,3.39l-6.37-3.68v-3.93l6.37,3.68c1.38.8,2.51.15,2.51-1.43l.07-22.9a5.47,5.47,0,0,0-2.47-4.27l-6.4-3.69,0-3.93Z"/></g><path class="cls-4" d="M753,577.8,819.24,616l48.66-28.09,4.25-2.43L804.9,549.84a6.42,6.42,0,0,0-6.43,0L753,573.35Z"/><polygon class="cls-72" points="747.21 573.73 813.2 611.78 862.08 583.61 796.09 545.51 747.21 573.73"/><polygon class="cls-73" points="861.31 571.52 861.31 583.6 813.37 611.24 813.37 599.24 861.31 571.52"/><path class="cls-72" d="M747.21,561.51l66,38.1,48.88-28.22-64.05-37a3.87,3.87,0,0,0-3.89,0Z"/><polygon class="cls-74" points="747.21 561.51 813.2 599.61 813.2 612.55 747.21 574.46 747.21 561.51"/><polygon class="cls-75" points="813.2 599.61 813.2 600.54 862.08 572.28 862.08 571.39 813.2 599.61"/><polygon class="cls-75" points="813.2 611.78 813.2 612.55 862.08 584.33 862.08 583.6 813.2 611.78"/><polygon class="cls-75" points="813.2 599.92 814.12 599.38 814.12 611.24 813.2 611.78 813.2 599.92"/><path class="cls-76" d="M817.59,603.78l3-1.76s1.46,2.3,2.31,2.67a30.76,30.76,0,0,0,5,1.29l-3.09,2.31s-4-1.29-4.73-1.9C819.16,605.53,817.59,603.78,817.59,603.78Z"/><path class="cls-73" d="M800.78,547.72l-26.1,15.07c-1.29.75-1.3,2,0,2.72l7.89,4.58a5.15,5.15,0,0,0,4.68,0L813.35,555a1.43,1.43,0,0,0,0-2.71l-7.89-4.59a5.23,5.23,0,0,0-4.69,0Z"/><polygon class="cls-77" points="747.21 558.47 813.2 596.52 862.08 568.34 796.09 530.24 747.21 558.47"/><polygon class="cls-73" points="861.31 556.26 861.31 568.34 813.37 595.97 813.37 583.98 861.31 556.26"/><path class="cls-77" d="M747.21,546.25l66,38.1,48.88-28.22-62.85-36.29a6.29,6.29,0,0,0-6.28,0Z"/><polygon class="cls-78" points="747.21 546.25 813.2 584.35 813.2 597.29 747.21 559.19 747.21 546.25"/><polygon class="cls-79" points="813.2 584.35 813.2 585.28 862.08 557.02 862.08 556.13 813.2 584.35"/><polygon class="cls-79" points="813.2 596.52 813.2 597.29 862.08 569.07 862.08 568.34 813.2 596.52"/><polygon class="cls-79" points="813.2 584.66 814.12 584.12 814.12 595.97 813.2 596.52 813.2 584.66"/><path class="cls-76" d="M817.59,588.51l3-1.76s1.46,2.31,2.31,2.67a29.84,29.84,0,0,0,5,1.3l-3.09,2.3s-4-1.29-4.73-1.9C819.16,590.27,817.59,588.51,817.59,588.51Z"/><path class="cls-73" d="M800.78,532.46l-26.1,15.07c-1.29.75-1.3,2,0,2.71l7.89,4.59a5.15,5.15,0,0,0,4.68,0l26.11-15.07c1.29-.75,1.29-2,0-2.71l-7.89-4.59a5.17,5.17,0,0,0-4.69,0Z"/><g class="cls-6"><polygon class="cls-80" points="1150.49 102.89 1139.51 96.51 1141.38 95.43 1152.36 101.81 1150.49 102.89"/><path class="cls-80" d="M1152.36,101.81l-11-6.38c5.61-3.24,9.6-8.22,9.58-15.71a55.08,55.08,0,0,0-.47-5.67,54.67,54.67,0,0,1-.47-5.6c0-2.15.57-5.52,5-8.16l11,6.38c-4.45,2.64-5,6-5,8.17a54.48,54.48,0,0,0,.47,5.59c.2,1.89.46,3.82.47,5.67C1162,93.59,1158,98.57,1152.36,101.81Z"/><polygon class="cls-3" points="1150.48 97.63 1139.49 91.24 1140.65 90.57 1151.64 96.96 1150.48 97.63"/><polygon class="cls-3" points="1150.49 102.89 1139.51 96.51 1139.49 91.24 1150.48 97.63 1150.49 102.89"/><polygon class="cls-80" points="1166.03 66.67 1155.04 60.28 1155.03 55.47 1166.01 61.85 1166.03 66.67"/><polygon class="cls-3" points="1160.34 67.58 1149.36 61.19 1149.36 61.04 1160.34 67.43 1160.34 67.58"/><path class="cls-3" d="M1162.05,62.66l-11-6.38c.73.42,2,.31,4-.81l11,6.38C1164,63,1162.79,63.09,1162.05,62.66Z"/><path class="cls-80" d="M1151,56.23q5.49,3.2,11,6.38l.07,0-11-6.38Z"/><path class="cls-3" d="M1151.64,97l-11-6.39c3.23-1.93,4.45-4.72,4.44-8.43a35.72,35.72,0,0,0-.4-4.44,39.63,39.63,0,0,1-.41-5.19,13.57,13.57,0,0,1,5.08-11.32l11,6.38a13.58,13.58,0,0,0-5.07,11.32,39.63,39.63,0,0,0,.4,5.19,34,34,0,0,1,.4,4.45C1156.08,92.24,1154.86,95,1151.64,97Z"/><polygon class="cls-80" points="1131.53 113.84 1120.54 107.46 1122.41 106.38 1133.4 112.76 1131.53 113.84"/><path class="cls-80" d="M1147,61.33a5.91,5.91,0,0,0,2.4-.29l11,6.39a5.67,5.67,0,0,1-2.39.28Z"/><path class="cls-80" d="M1147,61.33a.71.71,0,0,1,.15.08l.48.28.34.2.34.2,1.31.76,8.37,4.86a2.64,2.64,0,0,1-1-.33L1146,61A2.78,2.78,0,0,0,1147,61.33Z"/><polygon class="cls-80" points="1133.4 112.76 1122.41 106.38 1122.4 101.11 1133.38 107.5 1133.4 112.76"/><polygon class="cls-3" points="1132.22 108.17 1121.23 101.78 1122.4 101.11 1133.38 107.5 1132.22 108.17"/><path class="cls-3" d="M1128.94,108.76l-11-6.38c.73.42,1.8.25,3.28-.6l11,6.39C1130.74,109,1129.67,109.19,1128.94,108.76Z"/><path class="cls-80" d="M1118,102.38l-.2-.13,11,6.38.19.13Z"/><path class="cls-80" d="M1113.11,108.94c1.72,1,4.33.31,7.43-1.48l11,6.38c-3.1,1.79-5.71,2.48-7.43,1.48Z"/><path class="cls-80" d="M1116.7,98.53a36.68,36.68,0,0,1,.44-4.93l11,6.39a33.56,33.56,0,0,0-.44,4.93c0,1.85.33,3.13,1.06,3.71l-11-6.38C1117,101.67,1116.71,100.39,1116.7,98.53Z"/><path class="cls-80" d="M1150.85,40.65a9.88,9.88,0,0,0-.71-4.09l11,6.39a10,10,0,0,1,.71,4.09c0,1.92-.25,4.07-.44,6.26s-.44,4.26-.43,6.19c0,1.27.17,2.57,1,3.12q-5.51-3.18-11-6.38c-.84-.55-1-1.85-1-3.12,0-1.93.25-4.08.44-6.19S1150.86,42.58,1150.85,40.65Z"/><path class="cls-80" d="M1101.17,149.11l-11-6.38c-1.09-.63-1.77-2-1.77-3.87l11,6.38C1099.41,147.14,1100.08,148.48,1101.17,149.11Z"/><path class="cls-80" d="M1150.14,36.56a3.71,3.71,0,0,0-1.47-1.72l11,6.38a3.65,3.65,0,0,1,1.48,1.73l-5.49-3.19-1.44-.84-1.41-.82-1.36-.79A5.31,5.31,0,0,1,1150.14,36.56Z"/><path class="cls-80" d="M1117.14,93.6c.13-1.7.38-3.63.37-5.63l11,6.39c0,2-.25,3.92-.37,5.63Z"/><path class="cls-80" d="M1117.51,88l11,6.39h0l-11-6.39h0Z"/><path class="cls-81" d="M1172.41.41l11,6.38c-1.1-.64-2.62-.55-4.3.42l-11-6.39C1169.78-.14,1171.31-.23,1172.41.41Z"/><path class="cls-3" d="M1157,67.38,1146,61c-1.15-.67-1.78-2.31-1.75-5.32a49,49,0,0,1,.37-5.56,44.54,44.54,0,0,0,.37-4.89c0-2-.35-3.3-1.2-3.79l11,6.38c.85.49,1.2,1.81,1.21,3.79,0,1.48-.19,3.15-.37,4.9a48.73,48.73,0,0,0-.38,5.56C1155.19,65.07,1155.82,66.71,1157,67.38Z"/><path class="cls-3" d="M1124.1,115.32l-11-6.38c-1.39-.81-2.2-2.74-2.21-6.09a53.61,53.61,0,0,1,.43-6.19l11,6.38a56.24,56.24,0,0,0-.44,6.19C1121.89,112.59,1122.7,114.51,1124.1,115.32Z"/><path class="cls-80" d="M1143.37,41.27a1.48,1.48,0,0,1,.41.17l11,6.38a1.35,1.35,0,0,0-.41-.16Z"/><path class="cls-80" d="M1140.51,42a4.2,4.2,0,0,1,2.86-.75l11,6.39a4.21,4.21,0,0,0-2.85.74Z"/><polygon class="cls-80" points="1150.34 49.07 1139.35 42.69 1140.51 42.02 1151.5 48.4 1150.34 49.07"/><path class="cls-80" d="M1117.51,88c0-3-.6-4.66-1.77-5.34l11,6.38c1.16.68,1.8,2.35,1.77,5.35Z"/><path class="cls-3" d="M1148.66,34.83l11,6.39c-1.69-1-4.29-.39-7.45,1.43l-11-6.38C1144.37,34.45,1147,33.85,1148.66,34.83Z"/><path class="cls-3" d="M1110.6,87.44l11,6.38c.94.55,1.11,1.94,1.11,3.14,0,1.93-.18,4-.37,6.08l-11-6.38c.19-2.12.38-4.15.37-6.08C1111.7,89.38,1111.53,88,1110.6,87.44Z"/><path class="cls-3" d="M1152.19,42.65c5.75-3.31,9.63-2.58,9.65,4.39,0,1.92-.25,4.07-.44,6.26s-.44,4.27-.43,6.19c0,2.37.59,4.86,5,2.36l0,4.82c-4.45,2.64-5,6-5,8.17a54.48,54.48,0,0,0,.47,5.59c.2,1.89.46,3.82.47,5.67,0,7.49-4,12.47-9.59,15.71l-1.87,1.08V97.63l1.16-.67c3.22-1.94,4.44-4.72,4.43-8.43a34,34,0,0,0-.4-4.45,39.63,39.63,0,0,1-.4-5.19,13.58,13.58,0,0,1,5.07-11.32v-.14c-3.23,1-5.17-.14-5.12-5.36a48.73,48.73,0,0,1,.38-5.56c.18-1.75.37-3.42.37-4.9,0-3.63-1.18-5-4.47-3.21l-1.16.67,0-5.34Z"/><polygon class="cls-3" points="1150.34 49.07 1139.35 42.69 1139.34 37.35 1150.32 43.73 1150.34 49.07"/><polygon class="cls-3" points="1150.32 43.73 1139.34 37.35 1141.21 36.27 1152.19 42.65 1150.32 43.73"/><polygon class="cls-80" points="1123.31 88.95 1112.33 82.57 1112.33 82.42 1123.31 88.81 1123.31 88.95"/><path class="cls-3" d="M1115.74,82.61l11,6.38a4.31,4.31,0,0,0-3.41,0l-11-6.38A4.27,4.27,0,0,1,1115.74,82.61Z"/><path class="cls-80" d="M1106.66,88.22c2-1.11,3.2-1.21,3.93-.78l11,6.38c-.74-.42-1.95-.33-3.94.78Z"/><path class="cls-80" d="M1123.31,88.81l-11-6.39a13.42,13.42,0,0,0,5.14-11.28c0-1.93-.27-3.56-.41-5.11l11,6.38c.13,1.56.4,3.19.4,5.11A13.4,13.4,0,0,1,1123.31,88.81Z"/><polygon class="cls-3" points="1117.64 94.6 1106.66 88.22 1106.64 83.4 1117.63 89.78 1117.64 94.6"/><polygon class="cls-80" points="1132.08 59.61 1121.1 53.23 1122.26 52.56 1133.24 58.94 1132.08 59.61"/><path class="cls-3" d="M1117.63,89.78l-11-6.38c4.52-2.68,5-5.8,5-8.17a54,54,0,0,0-.4-5.7l11,6.38a56.82,56.82,0,0,1,.41,5.71C1122.65,84,1122.15,87.1,1117.63,89.78Z"/><path class="cls-80" d="M1128.05,72.41l-11-6.38a25.49,25.49,0,0,1-.46-4.41c0-3.64,1.14-6.46,4.5-8.39l11,6.38c-3.35,1.94-4.51,4.76-4.5,8.39A25.41,25.41,0,0,0,1128.05,72.41Z"/><polygon class="cls-80" points="1133.24 58.94 1122.26 52.56 1122.24 47.22 1133.23 53.6 1133.24 58.94"/><polygon class="cls-3" points="1131.36 54.68 1120.37 48.3 1122.24 47.22 1133.23 53.6 1131.36 54.68"/><path class="cls-3" d="M1122.24,75.91l-11-6.38a41.28,41.28,0,0,1-.47-5.75c0-7,3.84-12.17,9.58-15.48l11,6.38c-5.74,3.32-9.61,8.52-9.59,15.49A44.56,44.56,0,0,0,1122.24,75.91Z"/><path class="cls-82" d="M1179.09,7.21c3.33-1.92,6.06-.37,6.07,3.46l.25,84.92a13.34,13.34,0,0,1-6,10.44l-73.9,42.67c-3.33,1.92-6.06.37-6.07-3.46l-.24-84.92a13.33,13.33,0,0,1,6-10.44Zm-45.85,51.73V53.6l-1.87,1.08c-5.74,3.32-9.61,8.52-9.59,15.49a44.56,44.56,0,0,0,.47,5.74,56.82,56.82,0,0,1,.41,5.71c0,2.37-.51,5.48-5,8.16V94.6c4.52-2.53,5,.21,5,2.36,0,1.93-.18,4-.37,6.08a56.24,56.24,0,0,0-.44,6.19c0,7.49,4,7.85,9.65,4.61l1.87-1.08,0-5.27-1.16.68c-3.23,1.86-4.52.45-4.53-3.25a33.56,33.56,0,0,1,.44-4.93c.12-1.71.37-3.64.37-5.64,0-5.23-1.89-6.41-5.19-5.4v-.14a13.4,13.4,0,0,0,5.14-11.29c0-1.92-.27-3.55-.4-5.11a25.41,25.41,0,0,1-.47-4.41c0-3.63,1.15-6.45,4.5-8.39l1.16-.67ZM1166,66.67l0-4.82c-4.45,2.5-5,0-5-2.36,0-1.93.24-4.08.43-6.19s.44-4.34.44-6.26c0-7-3.9-7.7-9.65-4.39l-1.87,1.08,0,5.34,1.16-.67c3.29-1.83,4.46-.42,4.47,3.21,0,1.48-.19,3.15-.37,4.9a48.73,48.73,0,0,0-.38,5.56c0,5.22,1.89,6.33,5.12,5.36v.14a13.58,13.58,0,0,0-5.07,11.32,39.63,39.63,0,0,0,.4,5.19,34,34,0,0,1,.4,4.45c0,3.71-1.21,6.49-4.43,8.43l-1.16.67v5.26l1.87-1.08c5.61-3.24,9.61-8.22,9.59-15.71,0-1.85-.27-3.78-.47-5.67a54.48,54.48,0,0,1-.47-5.59c0-2.15.57-5.53,5-8.17Z"/><path class="cls-3" d="M1133.23,53.6v5.34l-1.16.67c-3.35,1.94-4.51,4.76-4.5,8.39a25.41,25.41,0,0,0,.47,4.41c.13,1.56.4,3.19.4,5.11a13.4,13.4,0,0,1-5.14,11.29V89c3.3-1,5.24.17,5.19,5.4,0,2-.25,3.93-.37,5.64a33.56,33.56,0,0,0-.44,4.93c0,3.7,1.3,5.11,4.53,3.25l1.16-.67,0,5.26-1.87,1.08c-5.62,3.24-9.62,2.88-9.65-4.61a56.24,56.24,0,0,1,.44-6.19c.19-2.11.37-4.15.37-6.08,0-2.15-.53-4.89-5-2.36V89.78c4.52-2.68,5-5.79,5-8.16a56.82,56.82,0,0,0-.41-5.71,44.56,44.56,0,0,1-.47-5.74c0-7,3.85-12.17,9.59-15.49Z"/><polygon class="cls-80" points="1099.4 145.24 1088.41 138.86 1088.17 53.94 1099.16 60.32 1099.4 145.24"/><polygon class="cls-81" points="1105.19 49.88 1094.2 43.49 1168.11 0.82 1179.09 7.21 1105.19 49.88"/><path class="cls-81" d="M1099.16,60.32l-11-6.38a13.34,13.34,0,0,1,6-10.45l11,6.39A13.33,13.33,0,0,0,1099.16,60.32Z"/></g><g class="cls-6"><polygon class="cls-83" points="770.79 261.33 759.81 254.95 790.34 220.4 801.32 226.78 770.79 261.33"/><polygon class="cls-3" points="770.77 254.74 759.79 248.35 784.39 221.08 795.38 227.46 770.77 254.74"/><polygon class="cls-83" points="770.7 228.49 759.71 222.11 784.39 220.93 795.38 227.31 770.7 228.49"/><polygon class="cls-3" points="795.38 227.46 784.39 221.08 784.39 220.93 795.38 227.31 795.38 227.46"/><polygon class="cls-3" points="770.68 221.9 759.69 215.51 790.32 214.76 801.31 221.14 770.68 221.9"/><polygon class="cls-83" points="801.32 226.78 790.34 220.4 790.32 214.76 801.31 221.14 801.32 226.78"/><polygon class="cls-3" points="770.79 261.33 759.81 254.95 759.79 248.35 770.77 254.74 770.79 261.33"/><polygon class="cls-83" points="745.64 278.83 734.66 272.44 740.2 269.24 751.19 275.62 745.64 278.83"/><path class="cls-83" d="M730.93,310.42l-11-6.39c-1.09-.63-1.76-2-1.77-3.87l11,6.39A4.22,4.22,0,0,0,730.93,310.42Z"/><path class="cls-84" d="M802.17,161.71l11,6.39c-1.1-.64-2.62-.56-4.3.41l-11-6.38C799.54,161.16,801.06,161.07,802.17,161.71Z"/><polygon class="cls-3" points="770.7 228.5 759.71 222.11 759.69 215.51 770.68 221.9 770.7 228.5"/><polygon class="cls-3" points="770.68 221.9 801.31 221.14 801.32 226.78 770.79 261.33 770.77 254.74 795.38 227.46 795.38 227.31 770.7 228.5 770.68 221.9"/><polygon class="cls-83" points="751.19 275.62 740.2 269.24 755.79 206.41 766.78 212.79 751.19 275.62"/><polygon class="cls-3" points="766.78 212.79 751.19 275.62 745.64 278.83 761.23 215.99 766.78 212.79"/><polygon class="cls-3" points="761.23 215.99 750.24 209.61 755.79 206.41 766.78 212.79 761.23 215.99"/><polygon class="cls-3" points="745.64 278.83 734.66 272.44 750.24 209.61 761.23 215.99 745.64 278.83"/><polygon class="cls-83" points="729.16 306.55 718.17 300.16 717.93 215.24 728.92 221.62 729.16 306.55"/><polygon class="cls-84" points="734.95 211.18 723.96 204.79 797.87 162.13 808.85 168.51 734.95 211.18"/><path class="cls-85" d="M808.85,168.51c3.33-1.92,6.06-.36,6.07,3.46l.24,84.92a13.36,13.36,0,0,1-6,10.45L735.23,310c-3.33,1.93-6.06.37-6.07-3.45l-.24-84.93a13.33,13.33,0,0,1,6-10.44Zm-7.53,58.27v-5.64l-30.63.76,0,6.59,24.68-1.18v.15l-24.61,27.28,0,6.59,30.53-34.55Zm-50.13,48.84,15.59-62.83-5.55,3.2-15.59,62.84,5.55-3.21Z"/><path class="cls-84" d="M728.92,221.62l-11-6.38a13.36,13.36,0,0,1,6-10.45l11,6.39A13.33,13.33,0,0,0,728.92,221.62Z"/></g></g></svg>