<svg xmlns="http://www.w3.org/2000/svg" xmlns:xlink="http://www.w3.org/1999/xlink" viewBox="0 0 750 500"><defs><style>.cls-1,.cls-10,.cls-11,.cls-12,.cls-13,.cls-14,.cls-15,.cls-16,.cls-17,.cls-18,.cls-19,.cls-20,.cls-21,.cls-22,.cls-23,.cls-24,.cls-25,.cls-26,.cls-27,.cls-28,.cls-29,.cls-30,.cls-31,.cls-32,.cls-33,.cls-34,.cls-35,.cls-36,.cls-37,.cls-38,.cls-39,.cls-40,.cls-41,.cls-42,.cls-43,.cls-44,.cls-45,.cls-46,.cls-47,.cls-48,.cls-49,.cls-50,.cls-51,.cls-52,.cls-53,.cls-54,.cls-55,.cls-56,.cls-57,.cls-58,.cls-59,.cls-60,.cls-61,.cls-62,.cls-63,.cls-64,.cls-65,.cls-66,.cls-67,.cls-9{fill:none;}.cls-2{isolation:isolate;}.cls-3{clip-path:url(#clip-path);}.cls-4{fill:url(#linear-gradient);}.cls-5{opacity:0.55;}.cls-5,.cls-7,.cls-70{mix-blend-mode:color-dodge;}.cls-6{fill:#fef;}.cls-7{fill:url(#radial-gradient);}.cls-8{mix-blend-mode:screen;}.cls-10,.cls-11,.cls-12,.cls-14,.cls-15,.cls-16,.cls-17,.cls-19,.cls-21,.cls-22,.cls-24,.cls-26,.cls-27,.cls-28,.cls-29,.cls-30,.cls-31,.cls-32,.cls-34,.cls-35,.cls-36,.cls-37,.cls-38,.cls-39,.cls-40,.cls-41,.cls-42,.cls-43,.cls-44,.cls-45,.cls-46,.cls-47,.cls-48,.cls-50,.cls-51,.cls-52,.cls-53,.cls-56,.cls-58,.cls-59,.cls-60,.cls-61,.cls-62,.cls-63,.cls-64,.cls-65,.cls-66,.cls-67,.cls-9{stroke-miterlimit:10;}.cls-14,.cls-17,.cls-22,.cls-27,.cls-31,.cls-32,.cls-52,.cls-56,.cls-58,.cls-59,.cls-60,.cls-61,.cls-62,.cls-63,.cls-64,.cls-65,.cls-66,.cls-67,.cls-9{stroke-width:0.5px;}.cls-9{stroke:url(#linear-gradient-2);}.cls-10{stroke:url(#linear-gradient-3);}.cls-11{stroke:url(#linear-gradient-4);}.cls-12{stroke:url(#linear-gradient-5);}.cls-13,.cls-18,.cls-20,.cls-23,.cls-25,.cls-33,.cls-49,.cls-54,.cls-55,.cls-57{stroke-linecap:round;stroke-linejoin:round;}.cls-13{stroke:url(#linear-gradient-6);}.cls-14{stroke:url(#linear-gradient-7);}.cls-15{stroke:url(#linear-gradient-8);}.cls-16{stroke:url(#linear-gradient-9);}.cls-17{stroke:url(#linear-gradient-10);}.cls-18{stroke:url(#linear-gradient-11);}.cls-19{stroke:url(#linear-gradient-12);}.cls-20{stroke:url(#linear-gradient-13);}.cls-21{stroke:url(#linear-gradient-14);}.cls-22{stroke:url(#linear-gradient-15);}.cls-23{stroke:url(#linear-gradient-16);}.cls-24{stroke:url(#linear-gradient-17);}.cls-25{stroke:url(#linear-gradient-18);}.cls-26{stroke:url(#linear-gradient-19);}.cls-27{stroke:url(#linear-gradient-20);}.cls-28{stroke:url(#linear-gradient-21);}.cls-29{stroke:url(#linear-gradient-22);}.cls-30{stroke:url(#linear-gradient-23);}.cls-31{stroke:url(#linear-gradient-24);}.cls-32{stroke:url(#linear-gradient-25);}.cls-33{stroke:url(#linear-gradient-26);}.cls-34{opacity:0.6;stroke:url(#linear-gradient-27);}.cls-35{opacity:0.4;stroke:url(#linear-gradient-28);}.cls-36,.cls-37,.cls-38,.cls-39,.cls-40,.cls-43,.cls-44,.cls-45,.cls-46,.cls-47{opacity:0.41;}.cls-36{stroke:url(#linear-gradient-29);}.cls-37{stroke:url(#linear-gradient-30);}.cls-38{stroke:url(#linear-gradient-31);}.cls-39{stroke:url(#linear-gradient-32);}.cls-40{stroke:url(#linear-gradient-33);}.cls-41{stroke:url(#linear-gradient-34);}.cls-42{stroke:url(#linear-gradient-35);}.cls-43{stroke:url(#linear-gradient-36);}.cls-44{stroke:url(#linear-gradient-37);}.cls-45{stroke:url(#linear-gradient-38);}.cls-46{stroke:url(#linear-gradient-39);}.cls-47{stroke:url(#linear-gradient-40);}.cls-48{opacity:0.39;stroke:url(#linear-gradient-41);}.cls-49{stroke:url(#linear-gradient-42);}.cls-50{stroke:url(#linear-gradient-43);}.cls-51{stroke:url(#linear-gradient-44);}.cls-52{stroke:url(#linear-gradient-45);}.cls-53{stroke:url(#linear-gradient-46);}.cls-54{stroke:url(#linear-gradient-47);}.cls-55{stroke:url(#linear-gradient-48);}.cls-56{stroke:url(#linear-gradient-49);}.cls-57{stroke:url(#linear-gradient-50);}.cls-58{stroke:url(#linear-gradient-51);}.cls-59{stroke:url(#linear-gradient-52);}.cls-60{stroke:url(#linear-gradient-53);}.cls-61{stroke:url(#linear-gradient-54);}.cls-62{stroke:url(#linear-gradient-55);}.cls-63{stroke:url(#linear-gradient-56);}.cls-64{stroke:url(#linear-gradient-57);}.cls-65{stroke:url(#linear-gradient-58);}.cls-66{stroke:url(#linear-gradient-59);}.cls-67{stroke:url(#linear-gradient-60);}.cls-68{fill:#e7c4e8;}.cls-69{clip-path:url(#clip-path-2);}.cls-70{fill:url(#radial-gradient-2);}</style><clipPath id="clip-path"><rect class="cls-1" width="750" height="500"/></clipPath><linearGradient id="linear-gradient" x1="659.54" y1="554.09" x2="42.95" y2="-104.87" gradientUnits="userSpaceOnUse"><stop offset="0" stop-color="#8f258f"/><stop offset="1" stop-color="#004"/></linearGradient><radialGradient id="radial-gradient" cx="640.43" cy="516.83" r="826.01" gradientUnits="userSpaceOnUse"><stop offset="0.08" stop-color="#ffab00"/><stop offset="0.1" stop-color="orange" stop-opacity="0.93"/><stop offset="0.36" stop-color="#ff7100" stop-opacity="0.3"/><stop offset="0.47" stop-color="#ff5c00" stop-opacity="0.05"/><stop offset="0.7" stop-color="#ff7db1" stop-opacity="0.02"/><stop offset="1" stop-color="#ff8cff" stop-opacity="0"/></radialGradient><linearGradient id="linear-gradient-2" x1="409.63" y1="286.13" x2="484.8" y2="361.3" gradientUnits="userSpaceOnUse"><stop offset="0" stop-color="#b9438f"/><stop offset="0.99" stop-color="#6769ff"/></linearGradient><linearGradient id="linear-gradient-3" x1="503.7" y1="277.04" x2="591.99" y2="365.33" xlink:href="#linear-gradient-2"/><linearGradient id="linear-gradient-4" x1="556.82" y1="123.4" x2="650.8" y2="217.38" xlink:href="#linear-gradient-2"/><linearGradient id="linear-gradient-5" x1="477.87" y1="168.91" x2="581.4" y2="272.44" xlink:href="#linear-gradient-2"/><linearGradient id="linear-gradient-6" x1="436.66" y1="210.41" x2="539.43" y2="313.18" xlink:href="#linear-gradient-2"/><linearGradient id="linear-gradient-7" x1="362.78" y1="375.34" x2="404.87" y2="417.43" xlink:href="#linear-gradient-2"/><linearGradient id="linear-gradient-8" x1="321.43" y1="340.03" x2="402.19" y2="420.79" xlink:href="#linear-gradient-2"/><linearGradient id="linear-gradient-9" x1="303.49" y1="433.76" x2="428.74" y2="559.01" xlink:href="#linear-gradient-2"/><linearGradient id="linear-gradient-10" x1="542.8" y1="308.45" x2="613.77" y2="379.42" xlink:href="#linear-gradient-2"/><linearGradient id="linear-gradient-11" x1="642.34" y1="208.85" x2="714.1" y2="280.6" xlink:href="#linear-gradient-2"/><linearGradient id="linear-gradient-12" x1="608.64" y1="346.66" x2="726.78" y2="464.8" xlink:href="#linear-gradient-2"/><linearGradient id="linear-gradient-13" x1="433.93" y1="347.15" x2="521.82" y2="435.03" xlink:href="#linear-gradient-2"/><linearGradient id="linear-gradient-14" x1="513.63" y1="441.68" x2="596.64" y2="524.69" xlink:href="#linear-gradient-2"/><linearGradient id="linear-gradient-15" x1="417.96" y1="229.22" x2="500.66" y2="311.92" xlink:href="#linear-gradient-2"/><linearGradient id="linear-gradient-16" x1="478.08" y1="168.99" x2="539.28" y2="230.19" xlink:href="#linear-gradient-2"/><linearGradient id="linear-gradient-17" x1="462.13" y1="183.58" x2="545.62" y2="267.07" xlink:href="#linear-gradient-2"/><linearGradient id="linear-gradient-18" x1="596.43" y1="171" x2="639.02" y2="213.59" xlink:href="#linear-gradient-2"/><linearGradient id="linear-gradient-19" x1="397.86" y1="297.05" x2="473.06" y2="372.25" xlink:href="#linear-gradient-2"/><linearGradient id="linear-gradient-20" x1="347.67" y1="390.29" x2="413.7" y2="456.32" xlink:href="#linear-gradient-2"/><linearGradient id="linear-gradient-21" x1="460.69" y1="360.11" x2="529.1" y2="428.51" xlink:href="#linear-gradient-2"/><linearGradient id="linear-gradient-22" x1="496.71" y1="458.27" x2="579.53" y2="541.09" xlink:href="#linear-gradient-2"/><linearGradient id="linear-gradient-23" x1="703.9" y1="405.89" x2="765.19" y2="467.18" xlink:href="#linear-gradient-2"/><linearGradient id="linear-gradient-24" x1="543.83" y1="267.28" x2="636.22" y2="359.67" xlink:href="#linear-gradient-2"/><linearGradient id="linear-gradient-25" x1="679.94" y1="312.44" x2="740.49" y2="372.99" xlink:href="#linear-gradient-2"/><linearGradient id="linear-gradient-26" x1="663.6" y1="203.11" x2="786.54" y2="326.06" xlink:href="#linear-gradient-2"/><linearGradient id="linear-gradient-27" x1="285.98" y1="63.9" x2="435.18" y2="213.1" xlink:href="#linear-gradient-2"/><linearGradient id="linear-gradient-28" x1="482.85" y1="67.8" x2="531.06" y2="116.01" xlink:href="#linear-gradient-2"/><linearGradient id="linear-gradient-29" x1="392.28" y1="44.88" x2="435.68" y2="88.27" xlink:href="#linear-gradient-2"/><linearGradient id="linear-gradient-30" x1="99.08" y1="150.69" x2="124.64" y2="176.25" gradientTransform="translate(181.69 7.16) rotate(49.63)" xlink:href="#linear-gradient-2"/><linearGradient id="linear-gradient-31" x1="286.19" y1="132.28" x2="336.88" y2="182.97" xlink:href="#linear-gradient-2"/><linearGradient id="linear-gradient-32" x1="207.11" y1="42.23" x2="244.45" y2="79.57" xlink:href="#linear-gradient-2"/><linearGradient id="linear-gradient-33" x1="144.05" y1="176.09" x2="184.09" y2="216.13" gradientTransform="translate(-75.89 169.3) rotate(-63.48)" xlink:href="#linear-gradient-2"/><linearGradient id="linear-gradient-34" x1="280.9" y1="219.7" x2="329.82" y2="268.62" xlink:href="#linear-gradient-2"/><linearGradient id="linear-gradient-35" x1="288.07" y1="303.6" x2="323.21" y2="338.74" xlink:href="#linear-gradient-2"/><linearGradient id="linear-gradient-36" x1="196.95" y1="220.69" x2="212.78" y2="236.51" xlink:href="#linear-gradient-2"/><linearGradient id="linear-gradient-37" x1="90.28" y1="365.89" x2="106.11" y2="381.71" gradientTransform="matrix(0.38, 0.92, -0.92, 0.38, 432.86, 173.1)" xlink:href="#linear-gradient-2"/><linearGradient id="linear-gradient-38" x1="-157.27" y1="325.72" x2="-141.45" y2="341.55" gradientTransform="matrix(0.38, 0.92, -0.92, 0.38, 432.86, 173.1)" xlink:href="#linear-gradient-2"/><linearGradient id="linear-gradient-39" x1="174.52" y1="388.29" x2="220.44" y2="434.21" xlink:href="#linear-gradient-2"/><linearGradient id="linear-gradient-40" x1="42.92" y1="260.58" x2="102.35" y2="320" gradientTransform="translate(-161.05 477.09) rotate(-103.85)" xlink:href="#linear-gradient-2"/><linearGradient id="linear-gradient-41" x1="165.53" y1="281.99" x2="311.1" y2="427.56" xlink:href="#linear-gradient-2"/><linearGradient id="linear-gradient-42" x1="620.32" y1="335.12" x2="702.86" y2="417.66" xlink:href="#linear-gradient-2"/><linearGradient id="linear-gradient-43" x1="660.93" y1="437.15" x2="728.25" y2="504.47" xlink:href="#linear-gradient-2"/><linearGradient id="linear-gradient-44" x1="611.31" y1="507.4" x2="647.37" y2="543.46" xlink:href="#linear-gradient-2"/><linearGradient id="linear-gradient-45" x1="630.5" y1="431.08" x2="695.03" y2="495.62" xlink:href="#linear-gradient-2"/><linearGradient id="linear-gradient-46" x1="715.77" y1="383.58" x2="782.73" y2="450.54" xlink:href="#linear-gradient-2"/><linearGradient id="linear-gradient-47" x1="491.49" y1="133.03" x2="520.22" y2="161.76" xlink:href="#linear-gradient-2"/><linearGradient id="linear-gradient-48" x1="426.1" y1="395" x2="561.61" y2="530.51" xlink:href="#linear-gradient-2"/><linearGradient id="linear-gradient-49" x1="381.43" y1="280.71" x2="426.6" y2="325.88" xlink:href="#linear-gradient-2"/><linearGradient id="linear-gradient-50" x1="381.29" y1="280.71" x2="441.54" y2="340.96" xlink:href="#linear-gradient-2"/><linearGradient id="linear-gradient-51" x1="543.75" y1="300.39" x2="631.31" y2="387.94" xlink:href="#linear-gradient-2"/><linearGradient id="linear-gradient-52" x1="553.84" y1="401.39" x2="607.67" y2="455.22" xlink:href="#linear-gradient-2"/><linearGradient id="linear-gradient-53" x1="608.96" y1="409.41" x2="650.16" y2="450.62" xlink:href="#linear-gradient-2"/><linearGradient id="linear-gradient-54" x1="619.91" y1="372.38" x2="674.12" y2="426.6" xlink:href="#linear-gradient-2"/><linearGradient id="linear-gradient-55" x1="568.17" y1="112.41" x2="627.22" y2="171.47" xlink:href="#linear-gradient-2"/><linearGradient id="linear-gradient-56" x1="629.16" y1="168.56" x2="727.69" y2="267.09" xlink:href="#linear-gradient-2"/><linearGradient id="linear-gradient-57" x1="564.92" y1="203.32" x2="607.1" y2="245.49" xlink:href="#linear-gradient-2"/><linearGradient id="linear-gradient-58" x1="389.21" y1="432.05" x2="471.55" y2="514.4" xlink:href="#linear-gradient-2"/><linearGradient id="linear-gradient-59" x1="369.2" y1="499.93" x2="427.69" y2="558.42" xlink:href="#linear-gradient-2"/><linearGradient id="linear-gradient-60" x1="509.89" y1="445.82" x2="563.34" y2="499.27" xlink:href="#linear-gradient-2"/><clipPath id="clip-path-2"><rect class="cls-1" x="-706.08" width="500" height="500"/></clipPath><radialGradient id="radial-gradient-2" cx="-190.65" cy="516.83" r="826.01" xlink:href="#radial-gradient"/></defs><title>Artboard 1 copy</title><g class="cls-2"><g id="BACKGROUND_2" data-name="BACKGROUND 2"><g class="cls-3"><rect class="cls-4" width="750" height="500"/><g class="cls-5"><circle class="cls-6" cx="407.55" cy="292.6" r="0.93"/><circle class="cls-6" cx="371.29" cy="294.11" r="0.93"/><circle class="cls-6" cx="324.03" cy="310.63" r="1.33"/><circle class="cls-6" cx="324" cy="322.52" r="1.46"/><circle class="cls-6" cx="353.8" cy="333.11" r="0.93"/><circle class="cls-6" cx="420.46" cy="354.31" r="0.93"/><circle class="cls-6" cx="463.37" cy="383.53" r="0.93"/><circle class="cls-6" cx="480.4" cy="425.91" r="0.93"/><circle class="cls-6" cx="414.08" cy="444.39" r="0.93"/><circle class="cls-6" cx="324.9" cy="445.64" r="0.93"/><circle class="cls-6" cx="317.41" cy="448.71" r="0.93"/><circle class="cls-6" cx="330.01" cy="436.77" r="0.93"/><circle class="cls-6" cx="393.63" cy="378.72" r="1.38"/><circle class="cls-6" cx="439.7" cy="394.95" r="0.93"/><circle class="cls-6" cx="527.44" cy="394.47" r="2.12"/><circle class="cls-6" cx="612.98" cy="384.82" r="0.93"/><circle class="cls-6" cx="679.09" cy="312.86" r="0.93"/><circle class="cls-6" cx="649.6" cy="295.41" r="0.93"/><circle class="cls-6" cx="649.9" cy="263.19" r="0.93"/><circle class="cls-6" cx="604.95" cy="270.93" r="1.89"/><path class="cls-6" d="M607.69,279.59a2.75,2.75,0,1,1-2.75-2.75A2.75,2.75,0,0,1,607.69,279.59Z"/><circle class="cls-6" cx="572.39" cy="277.44" r="0.93"/><circle class="cls-6" cx="548.19" cy="235.18" r="0.93"/><circle class="cls-6" cx="509.49" cy="198.12" r="0.93"/><circle class="cls-6" cx="467.06" cy="183.5" r="0.93"/><circle class="cls-6" cx="447.4" cy="171.03" r="0.93"/><circle class="cls-6" cx="319.97" cy="211.25" r="0.93"/><circle class="cls-6" cx="270.43" cy="196.53" r="0.93"/><circle class="cls-6" cx="341.67" cy="127.98" r="0.93"/><circle class="cls-6" cx="447.61" cy="113.03" r="0.93"/><circle class="cls-6" cx="499.22" cy="107.2" r="0.93"/><circle class="cls-6" cx="522.96" cy="102.92" r="0.93"/><circle class="cls-6" cx="620.68" cy="63.07" r="0.93"/><circle class="cls-6" cx="607.79" cy="98.82" r="0.93"/><circle class="cls-6" cx="513" cy="143.99" r="0.93"/><circle class="cls-6" cx="359.25" cy="181.44" r="0.93"/><circle class="cls-6" cx="371.65" cy="216.83" r="0.93"/><path class="cls-6" d="M347.55,238.93a2.29,2.29,0,1,1-2.29-2.29A2.3,2.3,0,0,1,347.55,238.93Z"/><circle class="cls-6" cx="271" cy="263.73" r="0.93"/><circle class="cls-6" cx="188.89" cy="271.37" r="0.93"/><circle class="cls-6" cx="152.86" cy="312.61" r="1.59"/><circle class="cls-6" cx="151.31" cy="328.83" r="1.8"/><circle class="cls-6" cx="126" cy="354.5" r="0.93"/><path class="cls-6" d="M109.51,398.94a.93.93,0,1,1-.93-.93A.93.93,0,0,1,109.51,398.94Z"/><path class="cls-6" d="M119.54,383.41a.93.93,0,1,1-.93-.93A.93.93,0,0,1,119.54,383.41Z"/><circle class="cls-6" cx="113.16" cy="391.29" r="0.93"/><path class="cls-6" d="M137.07,394.81a.93.93,0,1,1-1.85,0,.93.93,0,0,1,1.85,0Z"/><circle class="cls-6" cx="126.87" cy="372.84" r="0.93"/><circle class="cls-6" cx="120.73" cy="369.06" r="0.93"/><circle class="cls-6" cx="217.75" cy="448.38" r="0.93"/><circle class="cls-6" cx="253.08" cy="463.98" r="1.41"/><path class="cls-6" d="M271.84,471.41a1.18,1.18,0,1,1-1.18-1.17A1.18,1.18,0,0,1,271.84,471.41Z"/><path class="cls-6" d="M270.18,432.43a2.56,2.56,0,1,1-2.55-2.56A2.56,2.56,0,0,1,270.18,432.43Z"/><circle class="cls-6" cx="261.76" cy="409.63" r="0.93"/><circle class="cls-6" cx="285.43" cy="422.5" r="1.73"/><circle class="cls-6" cx="344.17" cy="460.2" r="0.93"/><path class="cls-6" d="M249.53,469.07a.93.93,0,1,1-.93-.93A.93.93,0,0,1,249.53,469.07Z"/><circle class="cls-6" cx="194.79" cy="480.98" r="1.3"/><path class="cls-6" d="M181.39,472.65a.93.93,0,1,1-.92-.92A.92.92,0,0,1,181.39,472.65Z"/><circle class="cls-6" cx="159.09" cy="477.99" r="1.84"/><circle class="cls-6" cx="304.79" cy="471.4" r="0.93"/><circle class="cls-6" cx="339.43" cy="466.36" r="0.93"/><circle class="cls-6" cx="388.17" cy="483.1" r="0.93"/><circle class="cls-6" cx="434.57" cy="456.02" r="0.93"/><circle class="cls-6" cx="433.35" cy="471.77" r="0.93"/><circle class="cls-6" cx="417.73" cy="453.13" r="0.93"/><circle class="cls-6" cx="419.95" cy="465.02" r="0.93"/><circle class="cls-6" cx="458.62" cy="466.63" r="0.93"/><circle class="cls-6" cx="591.98" cy="483.61" r="0.93"/><circle class="cls-6" cx="612.04" cy="482.55" r="0.93"/><circle class="cls-6" cx="648.76" cy="484.61" r="0.93"/><circle class="cls-6" cx="593.35" cy="452.5" r="0.93"/><circle class="cls-6" cx="514.29" cy="306.9" r="0.93"/><circle class="cls-6" cx="492.42" cy="329.39" r="0.93"/><circle class="cls-6" cx="484.13" cy="272.02" r="0.93"/><circle class="cls-6" cx="487.81" cy="258.61" r="0.93"/><circle class="cls-6" cx="468.92" cy="255.53" r="0.93"/><circle class="cls-6" cx="572.73" cy="157.34" r="3.1"/><circle class="cls-6" cx="569.65" cy="133.38" r="1.06"/><circle class="cls-6" cx="580.61" cy="135" r="0.98"/><circle class="cls-6" cx="605.48" cy="126.58" r="1.11"/><circle class="cls-6" cx="603.79" cy="119.98" r="0.93"/><circle class="cls-6" cx="595.96" cy="116.22" r="0.93"/><circle class="cls-6" cx="595.12" cy="120.75" r="0.93"/><circle class="cls-6" cx="610.34" cy="176.23" r="0.93"/><circle class="cls-6" cx="628.66" cy="204.85" r="0.93"/><circle class="cls-6" cx="682.3" cy="202.26" r="0.93"/><circle class="cls-6" cx="343.33" cy="141.24" r="0.93"/><circle class="cls-6" cx="270.05" cy="105.98" r="2.68"/><circle class="cls-6" cx="248.51" cy="89.96" r="1.41"/><circle class="cls-6" cx="218.47" cy="98.96" r="0.93"/><path class="cls-6" d="M205.91,74.45a.93.93,0,1,1-.93-.93A.93.93,0,0,1,205.91,74.45Z"/><circle class="cls-6" cx="226.48" cy="59.83" r="0.93"/><path class="cls-6" d="M187.24,58.2a.93.93,0,1,1-1.85,0,.93.93,0,0,1,1.85,0Z"/><circle class="cls-6" cx="182.32" cy="37.24" r="0.93"/><path class="cls-6" d="M181.74,62.29a.93.93,0,1,1-.93-.93A.93.93,0,0,1,181.74,62.29Z"/><circle class="cls-6" cx="212.43" cy="149.15" r="0.93"/><circle class="cls-6" cx="193.41" cy="134.29" r="0.93"/><circle class="cls-6" cx="151.85" cy="109.81" r="0.93"/><circle class="cls-6" cx="163.38" cy="127.3" r="0.93"/><circle class="cls-6" cx="182.84" cy="168.5" r="0.93"/><circle class="cls-6" cx="115.61" cy="185.56" r="0.93"/><circle class="cls-6" cx="349.13" cy="49.8" r="0.93"/><circle class="cls-6" cx="351.32" cy="21.85" r="0.93"/><circle class="cls-6" cx="345.77" cy="12.48" r="0.93"/><circle class="cls-6" cx="325.83" cy="8.15" r="0.93"/></g><g class="cls-5"><path class="cls-6" d="M91.35,133.09a.93.93,0,1,1-.93-.93A.93.93,0,0,1,91.35,133.09Z"/><path class="cls-6" d="M54.31,68.09a.93.93,0,1,1-.92-.93A.93.93,0,0,1,54.31,68.09Z"/><path class="cls-6" d="M71.57,63.21a.93.93,0,1,1-.93-.93A.93.93,0,0,1,71.57,63.21Z"/><circle class="cls-6" cx="78.6" cy="38.24" r="0.93"/><path class="cls-6" d="M27.45,46.85a.93.93,0,1,1-.93-.92A.93.93,0,0,1,27.45,46.85Z"/><circle class="cls-6" cx="20.11" cy="46.9" r="0.93"/><circle class="cls-6" cx="13.41" cy="92.92" r="0.93"/><path class="cls-6" d="M18.39,106.78a.93.93,0,1,1-.93-.92A.93.93,0,0,1,18.39,106.78Z"/><path class="cls-6" d="M74.94,92.7a.93.93,0,1,1-.93-.92A.93.93,0,0,1,74.94,92.7Z"/><path class="cls-6" d="M109.13,69.55a.93.93,0,1,1-1.85,0,.93.93,0,0,1,1.85,0Z"/><path class="cls-6" d="M119.1,57.18a.93.93,0,1,1-.93-.93A.93.93,0,0,1,119.1,57.18Z"/><path class="cls-6" d="M98.67,31a.93.93,0,1,1-.93-.93A.93.93,0,0,1,98.67,31Z"/><path class="cls-6" d="M46.73,6.13a.93.93,0,1,1-.92-.93A.92.92,0,0,1,46.73,6.13Z"/><circle class="cls-6" cx="19.05" cy="8.96" r="0.93" transform="matrix(0.03, -1, 1, 0.03, 9.46, 27.69)"/><circle class="cls-6" cx="20.81" cy="0.94" r="0.93" transform="matrix(0.01, -1, 1, 0.01, 19.64, 21.74)"/><circle class="cls-6" cx="55.58" cy="17.36" r="0.93"/><path class="cls-6" d="M126.59,21.92a.93.93,0,1,1-.92-.93A.93.93,0,0,1,126.59,21.92Z"/><circle class="cls-6" cx="157.99" cy="15.45" r="0.93"/><path class="cls-6" d="M19.46,179.55a.93.93,0,1,1-.93-.93A.93.93,0,0,1,19.46,179.55Z"/><path class="cls-6" d="M13.27,203.94a.93.93,0,1,1-.93-.93A.93.93,0,0,1,13.27,203.94Z"/><path class="cls-6" d="M21.67,227.2a.93.93,0,0,1-1.85,0,.93.93,0,1,1,1.85,0Z"/><circle class="cls-6" cx="4.21" cy="256.01" r="0.93"/><circle class="cls-6" cx="50.85" cy="258.31" r="0.93"/><path class="cls-6" d="M58.52,250.08a.93.93,0,1,1-.93-.93A.93.93,0,0,1,58.52,250.08Z"/><path class="cls-6" d="M89,250a.93.93,0,1,1-.93-.93A.93.93,0,0,1,89,250Z"/><path class="cls-6" d="M93.23,239.72a.93.93,0,1,1-.92-.93A.92.92,0,0,1,93.23,239.72Z"/><path class="cls-6" d="M75.56,216a.93.93,0,1,1-.93-.93A.93.93,0,0,1,75.56,216Z"/><path class="cls-6" d="M91.9,220.59a.93.93,0,1,1-.93-.92A.92.92,0,0,1,91.9,220.59Z"/><path class="cls-6" d="M114.86,229.1a.93.93,0,1,1-.93-.93A.93.93,0,0,1,114.86,229.1Z"/><path class="cls-6" d="M123.45,242a.93.93,0,1,1-.92-.92A.92.92,0,0,1,123.45,242Z"/><path class="cls-6" d="M93.71,259.41a.93.93,0,1,1-.93-.92A.93.93,0,0,1,93.71,259.41Z"/><path class="cls-6" d="M8.29,289a.93.93,0,1,1-.93-.93A.93.93,0,0,1,8.29,289Z"/><path class="cls-6" d="M.7,323.17a.93.93,0,0,1-.93.93.93.93,0,0,1-.93-.93.93.93,0,0,1,.93-.93A.93.93,0,0,1,.7,323.17Z"/><path class="cls-6" d="M34.17,320.19a.93.93,0,1,1-.93-.93A.93.93,0,0,1,34.17,320.19Z"/><path class="cls-6" d="M69.4,287.75a.93.93,0,1,1-.93-.93A.93.93,0,0,1,69.4,287.75Z"/><path class="cls-6" d="M71.09,296.51a.93.93,0,1,1-.92-.92A.93.93,0,0,1,71.09,296.51Z"/><circle class="cls-6" cx="34.52" cy="334.02" r="0.93"/><path class="cls-6" d="M17.54,396.09a.93.93,0,1,1-.93-.92A.93.93,0,0,1,17.54,396.09Z"/><path class="cls-6" d="M33,428.63a.93.93,0,1,1-.93-.93A.93.93,0,0,1,33,428.63Z"/><path class="cls-6" d="M85.8,433.69a.93.93,0,1,1-.93-.93A.93.93,0,0,1,85.8,433.69Z"/><path class="cls-6" d="M83.84,365.12a.93.93,0,1,1-.93-.93A.93.93,0,0,1,83.84,365.12Z"/><path class="cls-6" d="M106.39,400.62a.93.93,0,1,1-.93-.93A.93.93,0,0,1,106.39,400.62Z"/><path class="cls-6" d="M101.83,424.16a.93.93,0,1,1-1.85,0,.93.93,0,0,1,1.85,0Z"/><path class="cls-6" d="M107.45,463.82a.93.93,0,1,1-.93-.93A.93.93,0,0,1,107.45,463.82Z"/><path class="cls-6" d="M77,488.16a.93.93,0,1,1-.93-.93A.93.93,0,0,1,77,488.16Z"/><circle class="cls-6" cx="62.62" cy="400.82" r="0.93"/><path class="cls-6" d="M131.38,119.49a.93.93,0,1,1-.93-.93A.93.93,0,0,1,131.38,119.49Z"/><path class="cls-6" d="M136.15,135.78a.93.93,0,1,1-.93-.92A.93.93,0,0,1,136.15,135.78Z"/><path class="cls-6" d="M137.68,143.62a.93.93,0,1,1-.93-.93A.93.93,0,0,1,137.68,143.62Z"/><path class="cls-6" d="M59.35,129.64a.93.93,0,1,1-.92-.92A.92.92,0,0,1,59.35,129.64Z"/><path class="cls-6" d="M205.74,11.33a.93.93,0,1,1-.93-.93A.93.93,0,0,1,205.74,11.33Z"/><path class="cls-6" d="M233.69,9.17a.93.93,0,1,1-.93-.93A.93.93,0,0,1,233.69,9.17Z"/><path class="cls-6" d="M332.88.32a.93.93,0,1,1-1.85,0,.93.93,0,0,1,1.85,0Z"/><path class="cls-6" d="M597,14.85a.93.93,0,1,1-.93-.93A.93.93,0,0,1,597,14.85Z"/><path class="cls-6" d="M669.86,15.42a.93.93,0,1,1-.93-.93A.93.93,0,0,1,669.86,15.42Z"/><path class="cls-6" d="M719.23,11.41a.93.93,0,1,1-.93-.93A.93.93,0,0,1,719.23,11.41Z"/><path class="cls-6" d="M693.89,33a.93.93,0,1,1-.92-.93A.93.93,0,0,1,693.89,33Z"/><path class="cls-6" d="M691.09,59.37a.93.93,0,1,1-.93-.93A.93.93,0,0,1,691.09,59.37Z"/><circle class="cls-6" cx="694.61" cy="69.56" r="0.93"/><path class="cls-6" d="M732.67,111.81a.93.93,0,1,1-.93-.92A.93.93,0,0,1,732.67,111.81Z"/><path class="cls-6" d="M734.05,125.87a.93.93,0,1,1-.93-.93A.93.93,0,0,1,734.05,125.87Z"/><path class="cls-6" d="M670.87,94.42a.93.93,0,1,1-.92-.93A.92.92,0,0,1,670.87,94.42Z"/><path class="cls-6" d="M638,73a.93.93,0,1,1-.92-.93A.93.93,0,0,1,638,73Z"/><path class="cls-6" d="M653.63,66.13a.93.93,0,1,1-.93-.93A.93.93,0,0,1,653.63,66.13Z"/><path class="cls-6" d="M733.84,47.66a.93.93,0,1,1-.92-.93A.93.93,0,0,1,733.84,47.66Z"/><path class="cls-6" d="M747.88,43.39a.93.93,0,1,1-.92-.92A.92.92,0,0,1,747.88,43.39Z"/><circle class="cls-6" cx="746.63" cy="36.74" r="0.93"/><circle class="cls-6" cx="732.95" cy="133.96" r="0.93"/><path class="cls-6" d="M739.87,176.23a.93.93,0,1,1-.92-.93A.93.93,0,0,1,739.87,176.23Z"/><path class="cls-6" d="M464.32,11.21a.93.93,0,1,1-.92-.92A.92.92,0,0,1,464.32,11.21Z"/><circle class="cls-6" cx="540.19" cy="16.14" r="0.93"/><path class="cls-6" d="M484.45,31.62a.93.93,0,1,1-.93-.93A.93.93,0,0,1,484.45,31.62Z"/><path class="cls-6" d="M561.12,37.93a.93.93,0,1,1-.93-.93A.93.93,0,0,1,561.12,37.93Z"/><path class="cls-6" d="M452.06,65.53a.93.93,0,1,1-.93-.92A.93.93,0,0,1,452.06,65.53Z"/><path class="cls-6" d="M527.6,78.17a.93.93,0,1,1-.93-.92A.93.93,0,0,1,527.6,78.17Z"/><path class="cls-6" d="M156.24,255.6a.93.93,0,1,1-.93-.93A.93.93,0,0,1,156.24,255.6Z"/><path class="cls-6" d="M680.91,117.28a.93.93,0,1,1-.92-.92A.93.93,0,0,1,680.91,117.28Z"/><path class="cls-6" d="M728,161.87a.93.93,0,1,1-.92-.93A.92.92,0,0,1,728,161.87Z"/><path class="cls-6" d="M732.15,212a.93.93,0,1,1-.93-.93A.93.93,0,0,1,732.15,212Z"/><path class="cls-6" d="M46.2,460.69a.93.93,0,1,1-.93-.93A.92.92,0,0,1,46.2,460.69Z"/><path class="cls-6" d="M10.58,475a.93.93,0,1,1-.93-.93A.92.92,0,0,1,10.58,475Z"/><path class="cls-6" d="M4.14,493a.93.93,0,1,1-.93-.93A.93.93,0,0,1,4.14,493Z"/></g><circle class="cls-7" cx="499.76" cy="454.53" r="596.55"/><g class="cls-8"><polygon class="cls-9" points="510.31 334.8 411.64 340.19 419.39 276.99 510.31 334.8"/><polygon class="cls-10" points="587.32 264.58 551.33 404.81 455.77 326.01 587.32 264.58"/><path class="cls-11" d="M648.13,120c-1.86,0-116,29.16-116,29.16l55.23,115.41,118.51-103Z"/><polygon class="cls-12" points="441.52 206.26 532.1 149.17 587.32 264.58 441.52 206.26"/><polygon class="cls-13" points="455.77 326.01 587.32 264.58 441.52 206.26 455.77 326.01"/><polygon class="cls-14" points="321.35 417.23 411.64 340.19 424.43 397.37 321.35 417.23"/><polygon class="cls-15" points="360.91 301.81 321.35 417.23 424.43 397.37 360.91 301.81"/><path class="cls-16" d="M483.7,501.5c-3.11,0-162.75,65.26-162.35,63.4s0-147.68,0-147.68Z"/><polygon class="cls-17" points="651.85 340.9 587.32 264.58 551.33 404.81 651.85 340.9"/><polygon class="cls-18" points="705.83 161.58 587.32 264.58 685.36 308.64 705.83 161.58"/><polygon class="cls-19" points="551.33 404.81 679.77 510.3 685.36 308.64 551.33 404.81"/><polygon class="cls-20" points="424.43 397.37 551.33 404.81 455.77 326.01 424.43 397.37"/><polygon class="cls-21" points="641.19 478.62 483.7 501.5 551.33 404.81 641.19 478.62"/><polygon class="cls-22" points="441.52 206.26 419.39 276.99 521.55 290.02 441.52 206.26"/><polygon class="cls-23" points="532.1 149.17 546.99 221.77 441.52 206.26 532.1 149.17"/><polygon class="cls-24" points="521.55 290.02 546.99 221.77 441.52 206.26 521.55 290.02"/><polygon class="cls-25" points="648.13 120.01 546.99 221.77 587.32 264.58 648.13 120.01"/><polygon class="cls-26" points="424.43 397.37 509.76 334.7 419.39 276.99 424.43 397.37"/><polygon class="cls-27" points="378.42 491.08 424.43 397.37 321.35 417.23 378.42 491.08"/><polygon class="cls-28" points="509.76 334.7 551.33 404.81 424.43 397.37 509.76 334.7"/><polygon class="cls-29" points="551.33 404.81 503.55 587.86 641.19 478.62 551.33 404.81"/><path class="cls-30" d="M767.88,344s-30.4,152-32.26,152-55.85,14.27-55.85,14.27Z"/><polygon class="cls-31" points="509.76 334.7 685.36 308.64 521.55 290.02 509.76 334.7"/><polygon class="cls-32" points="767.88 344.01 685.36 308.64 651.85 340.9 767.88 344.01"/><polygon class="cls-33" points="705.83 161.58 767.88 344.01 685.36 308.64 705.83 161.58"/><polyline class="cls-34" points="255.98 94.57 336.28 54.24 379.16 152.28 378.19 206.26 441.52 206.26"/><polygon class="cls-35" points="503.55 48.03 470.47 154.76 580.8 65.41 503.55 48.03"/><polygon class="cls-36" points="383.8 54.24 440.76 28.8 402.52 120.01 383.8 54.24"/><polygon class="cls-37" points="123.69 180.28 156.2 195.84 101.76 213.13 123.69 180.28"/><polygon class="cls-38" points="262.18 157.24 317.92 113.8 360.91 157.24 262.18 157.24"/><polygon class="cls-39" points="189.81 60.48 230.48 28.8 261.84 60.48 189.81 60.48"/><polygon class="cls-40" points="153.63 139.59 146.91 94.83 191.27 80.26 153.63 139.59"/><polygon class="cls-41" points="253.49 248.14 311.89 203.78 357.58 239.14 253.49 248.14"/><polygon class="cls-42" points="301.09 359.52 290.01 302.74 329.6 301.81 301.09 359.52"/><polygon class="cls-43" points="203.85 214.94 198.27 239.14 221.23 227.04 203.85 214.94"/><polygon class="cls-44" points="137.72 401.22 113.23 405.36 133.23 421.91 137.72 401.22"/><polygon class="cls-45" points="79.67 157.24 55.18 161.38 75.17 177.93 79.67 157.24"/><polygon class="cls-46" points="173.45 437.69 200.75 363.24 239.84 413.76 173.45 437.69"/><polygon class="cls-47" points="143.68 365.41 39.66 346.69 99.74 286.64 143.68 365.41"/><polyline class="cls-48" points="321.35 417.23 273.35 355.8 266.52 425.6 221.23 293.75 181.52 266.13"/><polygon class="cls-49" points="551.33 404.81 767.88 344.01 641.19 478.62 551.33 404.81"/><polygon class="cls-50" points="735.62 496.03 689.04 411.05 679.77 510.3 735.62 496.03"/><polygon class="cls-51" points="679.77 510.3 611.11 570.92 641.19 478.62 679.77 510.3"/><polygon class="cls-52" points="689.04 411.05 591.36 470.73 679.77 510.3 689.04 411.05"/><polygon class="cls-53" points="767.88 344.01 689.04 411.05 735.62 496.03 767.88 344.01"/><polygon class="cls-54" points="470.47 154.76 532.1 149.17 525.64 124.43 470.47 154.76"/><polygon class="cls-55" points="424.43 397.37 551.33 404.81 503.55 587.86 424.43 397.37"/><polygon class="cls-56" points="360.74 301.97 411.64 340.19 419.39 276.99 360.74 301.97"/><polygon class="cls-57" points="360.74 301.97 455.77 326.01 419.39 276.99 360.74 301.97"/><polygon class="cls-58" points="510.31 334.8 651.85 340.9 601.59 417.23 510.31 334.8"/><polygon class="cls-59" points="591.36 470.73 601.59 417.23 551.33 404.81 591.36 470.73"/><polygon class="cls-60" points="689.04 411.05 601.59 417.23 591.36 470.73 689.04 411.05"/><polygon class="cls-61" points="651.85 340.9 689.04 411.05 601.59 417.23 651.85 340.9"/><polygon class="cls-62" points="532.1 149.17 599.18 199.08 648.13 120.01 532.1 149.17"/><polygon class="cls-63" points="705.83 161.58 599.18 199.08 685.36 308.64 705.83 161.58"/><polygon class="cls-64" points="546.99 221.77 599.18 199.08 587.32 264.58 546.99 221.77"/><polygon class="cls-65" points="424.43 397.37 378.42 491.08 483.7 501.5 424.43 397.37"/><polygon class="cls-66" points="321.35 564.9 378.42 491.08 483.7 501.5 321.35 564.9"/><polygon class="cls-67" points="591.36 470.73 483.7 501.5 551.33 404.81 591.36 470.73"/></g><circle class="cls-6" cx="531.75" cy="149.16" r="3.07"/><path class="cls-6" d="M445.38,206.59a3.71,3.71,0,1,1-3.71-3.71A3.71,3.71,0,0,1,445.38,206.59Z"/><path class="cls-6" d="M364.38,302a3.65,3.65,0,1,1-3.65-3.65A3.64,3.64,0,0,1,364.38,302Z"/><circle class="cls-6" cx="424.88" cy="397.32" r="4.74"/><circle class="cls-6" cx="483.7" cy="501.5" r="4.74"/><circle class="cls-6" cx="510.31" cy="334.8" r="2.41"/><path class="cls-6" d="M654.26,340.9a2.41,2.41,0,1,1-2.41-2.41A2.4,2.4,0,0,1,654.26,340.9Z"/><circle class="cls-6" cx="411.64" cy="340.19" r="2.41"/><path class="cls-6" d="M421.8,277a2.41,2.41,0,1,1-2.41-2.41A2.41,2.41,0,0,1,421.8,277Z"/><path class="cls-68" d="M276.31,357.11a2.42,2.42,0,1,1-2.41-2.41A2.41,2.41,0,0,1,276.31,357.11Z"/><circle class="cls-68" cx="173.45" cy="438.32" r="2.41"/><circle class="cls-68" cx="221.23" cy="294.79" r="2.41"/><path class="cls-68" d="M269.29,425.76a2.41,2.41,0,1,1-2.41-2.41A2.41,2.41,0,0,1,269.29,425.76Z"/><path class="cls-6" d="M381.57,206.59a2.41,2.41,0,1,1-2.41-2.41A2.41,2.41,0,0,1,381.57,206.59Z"/><path class="cls-6" d="M292.42,303.9a2.41,2.41,0,1,1-2.41-2.41A2.41,2.41,0,0,1,292.42,303.9Z"/><circle class="cls-68" cx="253.49" cy="248.14" r="2.41"/><path class="cls-68" d="M381.57,152.23a2.41,2.41,0,1,1-2.41-2.41A2.41,2.41,0,0,1,381.57,152.23Z"/><path class="cls-68" d="M583.21,65.2a2.41,2.41,0,1,1-2.41-2.41A2.41,2.41,0,0,1,583.21,65.2Z"/><circle class="cls-68" cx="440.76" cy="28.8" r="2.41"/><circle class="cls-68" cx="336.28" cy="54.24" r="2.41"/><circle class="cls-6" cx="521.13" cy="289.97" r="2.41"/><circle class="cls-6" cx="599.18" cy="199.08" r="2.41"/><circle class="cls-6" cx="601.59" cy="417.22" r="2.41"/><path class="cls-6" d="M380.83,491.08a2.41,2.41,0,1,1-2.41-2.41A2.41,2.41,0,0,1,380.83,491.08Z"/><circle class="cls-6" cx="591.64" cy="470.73" r="2.41"/><path class="cls-6" d="M691.46,411.05a2.42,2.42,0,1,1-2.42-2.41A2.41,2.41,0,0,1,691.46,411.05Z"/><circle class="cls-6" cx="586.9" cy="265.26" r="4.74"/><circle class="cls-6" cx="455.77" cy="326.01" r="4.74"/><circle class="cls-6" cx="685.36" cy="308.64" r="4.74"/><circle class="cls-6" cx="551.33" cy="404.81" r="4.74"/><circle class="cls-6" cx="641.19" cy="480.08" r="4.74"/><circle class="cls-6" cx="546.28" cy="222.07" r="4.74"/><path class="cls-6" d="M325.47,417.42a3.65,3.65,0,1,1-3.65-3.64A3.66,3.66,0,0,1,325.47,417.42Z"/><path class="cls-6" d="M708.65,161.3a3,3,0,1,1-3-3A3,3,0,0,1,708.65,161.3Z"/><path class="cls-6" d="M651.14,120a3,3,0,1,1-3-3A3,3,0,0,1,651.14,120Z"/></g></g><g id="BACKGROUND_1" data-name="BACKGROUND 1"><g class="cls-69"><circle class="cls-70" cx="-331.33" cy="454.53" r="596.55"/></g></g></g></svg>